<svg width="40" height="40" viewBox="0 0 40 40" fill="none" xmlns="http://www.w3.org/2000/svg">
<path d="M38.6311 10.8248L28.4406 0.235781C28.2955 0.0851562 28.0954 0 27.8863 0H12.698C10.9983 0 9.61537 1.38234 9.61537 3.08141V13.8462H3.46014C2.18842 13.8462 1.15381 14.8805 1.15381 16.1519V27.6944C1.15381 28.9657 2.18842 30 3.46014 30H9.61537V36.924C9.61537 38.6201 10.9983 40 12.698 40H35.7635C37.4633 40 38.8461 38.6209 38.8461 36.9257V11.3582C38.8461 11.1593 38.769 10.9681 38.6311 10.8248ZM28.0769 2.07664L36.4425 10.7692H28.0769V2.07664ZM3.46014 28.4616C3.0367 28.4616 2.69232 28.1174 2.69232 27.6944V16.1519C2.69232 15.7288 3.03678 15.3846 3.46014 15.3846H24.2322C24.6556 15.3846 25 15.7288 25 16.1519V27.6944C25 28.1174 24.6555 28.4616 24.2322 28.4616H3.46014ZM37.3076 36.9257C37.3076 37.7726 36.6149 38.4616 35.7634 38.4616H12.698C11.8465 38.4616 11.1538 37.7719 11.1538 36.9241V30H24.2322C25.5039 30 26.5385 28.9657 26.5385 27.6944V16.1519C26.5385 14.8805 25.5039 13.8462 24.2322 13.8462H11.1538V3.08141C11.1538 2.23055 11.8465 1.53844 12.698 1.53844H26.5384V11.5384C26.5384 11.9633 26.8829 12.3077 27.3076 12.3077H37.3076V36.9257Z" fill="#275BA8"/>
<path d="M19.2668 21.8416V22.9549H20.7948V23.7934C20.5934 23.9496 20.3523 24.0824 20.0713 24.1923C19.7904 24.3019 19.5102 24.3567 19.2307 24.3567C18.6658 24.3567 18.2091 24.1608 17.8606 23.7686C17.512 23.3765 17.3377 22.7882 17.3377 22.004C17.3377 21.2769 17.5098 20.7284 17.8538 20.3588C18.1979 19.9891 18.6613 19.8043 19.2443 19.8043C19.6289 19.8043 19.9497 19.8984 20.2066 20.086C20.4634 20.2739 20.6384 20.5301 20.7317 20.8545L22.0567 20.6066C21.9246 19.9997 21.6279 19.5241 21.1666 19.1801C20.7054 18.836 20.0646 18.6641 19.2443 18.6641C18.6133 18.6641 18.0859 18.7737 17.6623 18.9931C17.1064 19.2785 16.6842 19.6887 16.3958 20.2235C16.1074 20.7584 15.9631 21.3698 15.9631 22.0579C15.9631 22.692 16.0924 23.2787 16.3507 23.8179C16.6092 24.3573 16.9952 24.772 17.5091 25.062C18.0229 25.352 18.6253 25.497 19.3165 25.497C19.8604 25.497 20.3974 25.3941 20.9278 25.1881C21.4582 24.9823 21.863 24.7443 22.1427 24.4739V21.8416H19.2668V21.8416Z" fill="#275BA8"/>
<path d="M14.7146 19.5233C14.4593 19.1912 14.1422 18.9756 13.7636 18.8763C13.5172 18.8102 12.9884 18.7773 12.1771 18.7773H10.0361V25.3848H11.3703V22.8923H12.2402C12.8442 22.8923 13.3054 22.8608 13.6239 22.7977C13.8582 22.7466 14.0889 22.6421 14.3157 22.4845C14.5426 22.3268 14.7296 22.1096 14.8769 21.8331C15.0242 21.5568 15.0978 21.2156 15.0978 20.81C15.0978 20.2843 14.97 19.8552 14.7146 19.5233ZM13.5721 21.342C13.4714 21.4891 13.3325 21.5973 13.1551 21.6664C12.9779 21.7354 12.6263 21.77 12.1004 21.77H11.3703V19.895H12.0148C12.4956 19.895 12.8156 19.91 12.9748 19.94C13.1911 19.9792 13.37 20.0767 13.5111 20.233C13.6524 20.3892 13.723 20.5877 13.723 20.828C13.7231 21.0233 13.6728 21.1946 13.5721 21.342Z" fill="#275BA8"/>
<path d="M7.28655 18.7773V23.0455C7.28655 23.5804 7.22499 23.9327 7.10179 24.1025C6.97858 24.2723 6.76827 24.3571 6.47077 24.3571C6.17632 24.3571 5.95694 24.2385 5.81272 24.0011C5.71655 23.8448 5.66101 23.5774 5.64593 23.1988L4.38843 23.343C4.3914 24.0492 4.56874 24.5848 4.9203 24.9498C5.27186 25.3149 5.77366 25.4974 6.42569 25.4974C6.98155 25.4974 7.42929 25.3809 7.76882 25.1482C8.10835 24.9153 8.34272 24.6065 8.47194 24.2219C8.56811 23.9275 8.61616 23.5067 8.61616 22.96V18.7773H7.28655V18.7773Z" fill="#275BA8"/>
</svg>
