<svg width="24" height="24" viewBox="0 0 24 24" fill="none" xmlns="http://www.w3.org/2000/svg">
<path d="M14.334 11.4283H17.1573C17.3109 11.4292 17.4631 11.3997 17.6052 11.3417C17.7474 11.2836 17.8766 11.1981 17.9856 11.0899L23.329 5.74661C23.4383 5.63815 23.5251 5.50912 23.5844 5.36695C23.6436 5.22478 23.6741 5.07229 23.6741 4.91827C23.6741 4.76426 23.6436 4.61177 23.5844 4.4696C23.5251 4.32743 23.4383 4.1984 23.329 4.08994L20.5057 1.26661C20.3972 1.15726 20.2682 1.07046 20.126 1.01123C19.9838 0.952003 19.8313 0.921509 19.6773 0.921509C19.5233 0.921509 19.3708 0.952003 19.2286 1.01123C19.0865 1.07046 18.9574 1.15726 18.849 1.26661L13.5057 6.60994C13.2925 6.83351 13.1716 7.12938 13.1673 7.43827V10.2616C13.1673 10.571 13.2902 10.8678 13.509 11.0866C13.7278 11.3054 14.0246 11.4283 14.334 11.4283ZM15.5007 7.92827L19.6773 3.75161L20.844 4.91827L16.6673 9.09494H15.5007V7.92827ZM22.5007 10.2616C22.1912 10.2616 21.8945 10.3845 21.6757 10.6033C21.4569 10.8221 21.334 11.1189 21.334 11.4283V19.5949C21.334 19.9044 21.2111 20.2011 20.9923 20.4199C20.7735 20.6387 20.4767 20.7616 20.1673 20.7616H3.83398C3.52457 20.7616 3.22782 20.6387 3.00903 20.4199C2.79023 20.2011 2.66732 19.9044 2.66732 19.5949V8.38327L9.52732 15.2549C9.85289 15.5848 10.2407 15.8466 10.6683 16.0254C11.0959 16.2041 11.5547 16.2961 12.0182 16.2961C12.4816 16.2961 12.9404 16.2041 13.368 16.0254C13.7956 15.8466 14.1834 15.5848 14.509 15.2549C14.7227 15.0369 14.8425 14.7437 14.8425 14.4383C14.8425 14.1329 14.7227 13.8397 14.509 13.6216C14.4003 13.5105 14.2706 13.4222 14.1273 13.3619C13.9841 13.3016 13.8302 13.2706 13.6748 13.2706C13.5194 13.2706 13.3656 13.3016 13.2223 13.3619C13.0791 13.4222 12.9493 13.5105 12.8407 13.6216C12.6226 13.8354 12.3294 13.9551 12.024 13.9551C11.7186 13.9551 11.4254 13.8354 11.2073 13.6216L4.31232 6.73827H9.66732C9.97674 6.73827 10.2735 6.61536 10.4923 6.39657C10.7111 6.17777 10.834 5.88103 10.834 5.57161C10.834 5.26219 10.7111 4.96544 10.4923 4.74665C10.2735 4.52786 9.97674 4.40494 9.66732 4.40494H3.83398C2.90573 4.40494 2.01549 4.77369 1.35911 5.43007C0.702733 6.08644 0.333984 6.97668 0.333984 7.90494V19.5716C0.333984 20.4999 0.702733 21.3901 1.35911 22.0465C2.01549 22.7029 2.90573 23.0716 3.83398 23.0716H20.1673C21.0956 23.0716 21.9858 22.7029 22.6422 22.0465C23.2986 21.3901 23.6673 20.4999 23.6673 19.5716V11.4049C23.6673 11.0955 23.5444 10.7988 23.3256 10.58C23.1068 10.3612 22.8101 10.2383 22.5007 10.2383V10.2616Z" fill="#275BA8"/>
</svg>
