<svg width="40" height="40" viewBox="0 0 40 40" fill="none" xmlns="http://www.w3.org/2000/svg">
<path d="M38.6316 10.8248L28.4411 0.235781C28.296 0.0851562 28.0959 0 27.8868 0H12.6985C10.9988 0 9.61586 1.38234 9.61586 3.08141V13.8462H3.46063C2.18891 13.8462 1.1543 14.8805 1.1543 16.1519V27.6944C1.1543 28.9657 2.18891 30 3.46063 30H9.61586V36.924C9.61586 38.6201 10.9988 40 12.6985 40H35.764C37.4638 40 38.8466 38.6209 38.8466 36.9257V11.3582C38.8466 11.1593 38.7695 10.9681 38.6316 10.8248ZM28.0774 2.07664L36.443 10.7692H28.0774V2.07664ZM3.46063 28.4616C3.03719 28.4616 2.69281 28.1174 2.69281 27.6944V16.1519C2.69281 15.7288 3.03727 15.3846 3.46063 15.3846H24.2327C24.6561 15.3846 25.0005 15.7288 25.0005 16.1519V27.6944C25.0005 28.1174 24.656 28.4616 24.2327 28.4616H3.46063ZM37.3081 36.9257C37.3081 37.7726 36.6154 38.4616 35.7639 38.4616H12.6985C11.847 38.4616 11.1543 37.7719 11.1543 36.9241V30H24.2327C25.5044 30 26.539 28.9657 26.539 27.6944V16.1519C26.539 14.8805 25.5044 13.8462 24.2327 13.8462H11.1543V3.08141C11.1543 2.23055 11.847 1.53844 12.6985 1.53844H26.5389V11.5384C26.5389 11.9633 26.8834 12.3077 27.3081 12.3077H37.3081V36.9257Z" fill="#275BA8"/>
<path d="M10.3504 19.523C10.095 19.191 9.77796 18.9754 9.39937 18.8762C9.15296 18.8101 8.62414 18.7771 7.81281 18.7771H5.67188V25.3847H7.00601V22.8922H7.87593C8.47992 22.8922 8.94117 22.8606 9.25968 22.7975C9.49406 22.7464 9.72468 22.642 9.95156 22.4842C10.1784 22.3265 10.3655 22.1094 10.5127 21.833C10.66 21.5565 10.7336 21.2155 10.7336 20.8098C10.7335 20.284 10.6058 19.8551 10.3504 19.523ZM9.20781 21.3417C9.10718 21.489 8.9682 21.5971 8.79085 21.6662C8.61351 21.7354 8.26203 21.7699 7.73617 21.7699H7.00601V19.8949H7.65054C8.13132 19.8949 8.45132 19.9099 8.61054 19.94C8.82687 19.9791 9.0057 20.0767 9.14687 20.233C9.28812 20.3892 9.35874 20.5876 9.35874 20.8279C9.35882 21.0232 9.30843 21.1944 9.20781 21.3417Z" fill="#275BA8"/>
<path d="M17.1473 20.5823C17.003 20.1601 16.7927 19.8033 16.5163 19.5118C16.2398 19.2203 15.9077 19.0175 15.5202 18.9033C15.2317 18.8191 14.8125 18.7771 14.2627 18.7771H11.8242V25.3847H14.3348C14.8276 25.3847 15.2212 25.3381 15.5156 25.2449C15.9093 25.1187 16.2218 24.9429 16.4531 24.7176C16.7596 24.4201 16.9955 24.031 17.1608 23.5502C17.296 23.1565 17.3636 22.6878 17.3636 22.144C17.3636 21.525 17.2915 21.0044 17.1473 20.5823ZM15.8491 23.2956C15.759 23.5916 15.6426 23.8042 15.4998 23.9333C15.3571 24.0626 15.1776 24.1542 14.9613 24.2083C14.796 24.2504 14.527 24.2714 14.1545 24.2714H13.1584V19.8949H13.7578C14.3016 19.8949 14.6668 19.9159 14.853 19.958C15.1024 20.0121 15.3083 20.1158 15.4705 20.269C15.6328 20.4223 15.759 20.6356 15.8491 20.909C15.9393 21.1825 15.9844 21.5746 15.9844 22.0855C15.9844 22.5962 15.9393 22.9996 15.8491 23.2956Z" fill="#275BA8"/>
<path d="M23.0337 19.8949V18.7771H18.5039V25.3847H19.838V22.5767H22.5965V21.4589H19.838V19.8949H23.0337Z" fill="#275BA8"/>
</svg>
