<svg width="21" height="21" viewBox="0 0 21 21" fill="none" xmlns="http://www.w3.org/2000/svg">
<path d="M18.9963 17.7537L15.75 14.5337C17.0101 12.9626 17.6204 10.9684 17.4552 8.96111C17.2901 6.95387 16.3622 5.08616 14.8624 3.74204C13.3625 2.39792 11.4046 1.67955 9.39135 1.73464C7.37807 1.78973 5.46242 2.61409 4.03829 4.03823C2.61416 5.46236 1.78979 7.37801 1.7347 9.39128C1.67961 11.4046 2.39798 13.3624 3.7421 14.8623C5.08622 16.3622 6.95393 17.2901 8.96118 17.4552C10.9684 17.6203 12.9626 17.0101 14.5338 15.75L17.7538 18.97C17.8351 19.052 17.9319 19.1171 18.0385 19.1615C18.1452 19.2059 18.2595 19.2288 18.375 19.2288C18.4905 19.2288 18.6049 19.2059 18.7115 19.1615C18.8182 19.1171 18.9149 19.052 18.9963 18.97C19.154 18.8068 19.2422 18.5888 19.2422 18.3619C19.2422 18.1349 19.154 17.9169 18.9963 17.7537V17.7537ZM9.62504 15.75C8.41363 15.75 7.22942 15.3908 6.22217 14.7177C5.21492 14.0447 4.42986 13.0881 3.96628 11.9689C3.50269 10.8497 3.38139 9.61818 3.61773 8.43005C3.85406 7.24192 4.43741 6.15054 5.29401 5.29395C6.15061 4.43735 7.24198 3.854 8.43011 3.61767C9.61824 3.38133 10.8498 3.50263 11.969 3.96621C13.0882 4.4298 14.0448 5.21486 14.7178 6.22211C15.3908 7.22936 15.75 8.41357 15.75 9.62498C15.75 11.2494 15.1047 12.8073 13.9561 13.956C12.8074 15.1047 11.2495 15.75 9.62504 15.75V15.75Z" fill="#C7D0E2"/>
</svg>
