<svg width="40" height="40" viewBox="0 0 40 40" fill="none" xmlns="http://www.w3.org/2000/svg">
<path d="M38.6312 10.8248L28.4406 0.235781C28.2955 0.0851562 28.0954 0 27.8863 0H12.698C10.9983 0 9.61537 1.38234 9.61537 3.08141V13.8462H3.46014C2.18842 13.8462 1.15381 14.8805 1.15381 16.1519V27.6944C1.15381 28.9657 2.18842 30 3.46014 30H9.61537V36.924C9.61537 38.6201 10.9983 40 12.698 40H35.7635C37.4633 40 38.8462 38.6209 38.8462 36.9257V11.3582C38.8462 11.1593 38.769 10.9681 38.6312 10.8248ZM28.0769 2.07664L36.4425 10.7692H28.0769V2.07664ZM3.46014 28.4616C3.0367 28.4616 2.69232 28.1174 2.69232 27.6944V16.1519C2.69232 15.7288 3.03678 15.3846 3.46014 15.3846H24.2321C24.6554 15.3846 25 15.7288 25 16.1519V27.6944C25 28.1174 24.6554 28.4616 24.2321 28.4616H3.46014ZM37.3076 36.9257C37.3076 37.7726 36.6149 38.4616 35.7634 38.4616H12.698C11.8465 38.4616 11.1538 37.7719 11.1538 36.9241V30H24.232C25.5038 30 26.5384 28.9657 26.5384 27.6944V16.1519C26.5384 14.8805 25.5038 13.8462 24.232 13.8462H11.1538V3.08141C11.1538 2.23055 11.8465 1.53844 12.698 1.53844H26.5384V11.5384C26.5384 11.9633 26.8829 12.3077 27.3076 12.3077H37.3076V36.9257Z" fill="#275BA8"/>
<path d="M22.2378 22.4081C22.062 22.124 21.8186 21.9002 21.5077 21.7364C21.1966 21.5727 20.7167 21.4142 20.0677 21.261C19.4186 21.1077 19.01 20.9604 18.8417 20.8192C18.7094 20.7081 18.6433 20.5742 18.6433 20.4181C18.6433 20.2467 18.7138 20.11 18.8552 20.0078C19.0746 19.8486 19.3781 19.769 19.7656 19.769C20.1412 19.769 20.423 19.8435 20.6108 19.9921C20.7985 20.1407 20.9209 20.385 20.978 20.7246L22.3121 20.6659C22.2912 20.0589 22.0712 19.5736 21.652 19.2102C21.2327 18.8465 20.6085 18.6648 19.7793 18.6648C19.2714 18.6648 18.838 18.7413 18.4789 18.8946C18.1198 19.0479 17.8448 19.271 17.6541 19.5639C17.4633 19.8569 17.3677 20.1717 17.3677 20.5083C17.3677 21.031 17.5706 21.4742 17.9764 21.8379C18.2648 22.0962 18.7666 22.3141 19.4818 22.4914C20.0376 22.6296 20.3937 22.7258 20.5498 22.7798C20.7784 22.861 20.9383 22.9564 21.0298 23.066C21.1216 23.1758 21.1673 23.3086 21.1673 23.465C21.1673 23.7083 21.0584 23.921 20.8406 24.1027C20.6227 24.2844 20.2991 24.3753 19.8693 24.3753C19.4637 24.3753 19.1414 24.2732 18.9026 24.0688C18.6637 23.8646 18.5053 23.5446 18.427 23.1088L17.1289 23.235C17.216 23.9742 17.4835 24.5369 17.9312 24.923C18.379 25.3089 19.0205 25.5021 19.8559 25.5021C20.4297 25.5021 20.9091 25.4217 21.2937 25.2609C21.6784 25.1003 21.9756 24.8546 22.186 24.5239C22.3964 24.1935 22.5016 23.8389 22.5016 23.4603C22.5015 23.0427 22.4136 22.6919 22.2378 22.4081Z" fill="#275BA8"/>
<path d="M13.1986 24.2712V18.8311H11.8643V25.3845H16.5159V24.2712H13.1986Z" fill="#275BA8"/>
<path d="M8.88516 21.9862L10.9405 18.7771H9.39461L8.09656 20.9L6.77133 18.7771H5.21195L7.25805 21.9366L5 25.3846H6.6L8.06945 23.0994L9.53422 25.3846H11.1433L8.88516 21.9862Z" fill="#275BA8"/>
</svg>
