<svg width="48" height="52" viewBox="0 0 48 52" fill="none" xmlns="http://www.w3.org/2000/svg">
<path opacity="0.7" d="M46.98 9.92001L46.68 10.34C46.86 9.14001 46.62 7.46001 46.32 6.50001C45.9 8.06001 45.12 9.44001 44.04 10.76L43.98 9.98001C42.72 11.96 41.16 13.58 39.42 14.36C39.42 14.06 39.36 13.7 39.24 13.46C36.96 16.46 31.44 15.74 32.04 21.8C33.3 21.62 33.9 22.88 32.82 24.08C32.34 24.08 31.86 23.9 31.44 23.66L31.68 23.3L30.72 22.82C30.96 22.76 31.2 22.64 31.44 22.52C30 21.8 30.48 20.42 28.8 19.7C28.5 19.4 28.26 18.98 28.08 18.56C28.02 18.26 27.96 17.9 27.9 17.54C27.9 16.82 27.9 16.4 28.08 16.1L28.2 16.28C28.62 15.32 29.16 14.6 29.88 14.18C31.86 14.24 33 14.12 33.36 12.92C33.24 12.98 33.18 12.98 33.12 12.98C33.06 12.86 33 12.8 32.94 12.74C33.42 12.56 34.14 12.86 34.32 12.86C34.26 12.26 34.02 12.08 33.9 11.84L34.56 11.36C36.24 11.9 37.68 10.64 38.7 11.18L39.06 9.92001C37.56 9.20001 36.66 10.16 35.4 10.16C35.76 9.38001 35.82 8.66001 35.52 7.94001L34.2 7.52001C32.58 8.00001 32.64 9.50001 33.24 10.52C32.88 10.88 32.52 11.06 32.28 11.18L31.86 11.24C31.86 11.24 31.8 10.7 31.08 10.52V10.16C31.98 9.44001 32.04 8.72001 31.86 8.30001C31.68 7.88001 31.2 7.64001 30.78 7.76001L30.18 7.94001L30.12 7.82001C30.18 7.76001 30.18 7.70001 30.18 7.64001C30.18 7.52001 30.12 7.40001 30.06 7.34001H30.12L30.06 7.10001L30.3 7.16001V6.32001L30.06 6.38001L30.12 6.14001H29.28L29.34 6.38001L29.1 6.32001V7.16001L29.34 7.10001L29.1 7.40001H29.22C29.16 7.46001 29.1 7.58001 29.1 7.70001C29.1 7.76001 29.1 7.88001 29.16 7.94001L29.1 8.06001L28.5 7.88001C28.08 7.76001 27.6 7.94001 27.42 8.42001C27.24 8.84001 27.3 9.50001 28.2 10.28V10.76C27.96 10.76 27.72 10.76 27.54 10.76C26.82 10.34 26.22 9.62001 26.04 8.72001C26.52 8.66001 26.88 8.48001 27.18 8.18001V6.92001C29.1 5.48001 29.64 3.56001 27.96 2.72001C27 2.24001 25.8 2.66001 25.2 3.14001C25.08 2.96001 24.9 2.78001 24.72 2.72001C24.72 2.54001 24.66 2.36001 24.48 2.18001H24.6L24.48 1.76001L24.9 1.88001V0.56001L24.48 0.68001L24.6 0.26001H23.28L23.4 0.68001L22.98 0.56001V1.88001L23.4 1.76001L23.28 2.18001H23.4C23.28 2.30001 23.16 2.48001 23.16 2.72001V2.78001C23.04 2.84001 22.86 3.02001 22.74 3.14001C22.14 2.66001 20.94 2.24001 20.04 2.72001C18.36 3.56001 18.9 5.48001 20.82 6.92001V8.18001C21.12 8.48001 21.54 8.66001 21.96 8.72001C21.78 9.56001 21.18 10.28 20.46 10.76C20.28 10.76 20.04 10.76 19.8 10.76V10.22C20.7 9.50001 20.76 8.78001 20.58 8.36001C20.4 7.94001 19.92 7.70001 19.5 7.82001L18.9 8.00001L18.84 7.88001C18.9 7.82001 18.9 7.76001 18.9 7.70001C18.9 7.58001 18.84 7.46001 18.78 7.40001H18.84L18.78 7.16001L19.02 7.22001V6.38001L18.78 6.44001L18.84 6.20001H18L18.06 6.44001L17.82 6.38001V7.22001L18.06 7.16001V7.40001H18.18C18.12 7.46001 18.06 7.58001 18.06 7.70001C18.06 7.76001 18.06 7.88001 18.12 7.94001L18.06 8.06001L17.46 7.88001C17.04 7.76001 16.56 7.94001 16.38 8.42001C16.2 8.84001 16.26 9.50001 17.16 10.28V10.64C16.44 10.82 16.38 11.42 16.38 11.42H16.08C15.84 11.3 15.3 10.94 14.94 10.58C15.54 9.50001 15.54 8.18001 13.98 7.70001L12.6 8.00001C12.3 8.72001 12.36 9.38001 12.72 10.16C11.46 10.16 10.56 9.20001 9.06 9.92001L9.42 11.18C10.44 10.64 11.88 11.9 13.56 11.36L14.22 11.84C13.98 12.14 13.74 12.44 13.68 12.98C14.1 12.74 14.52 12.68 15.18 12.8C14.94 12.8 14.88 12.92 14.88 12.98C14.94 13.04 15 13.04 15 13.04C14.94 13.04 14.76 12.98 14.58 12.98C14.94 14.12 16.14 14.24 18.12 14.18C18.84 14.54 19.32 15.26 19.8 16.28L19.92 16.1C20.04 16.46 20.1 16.82 20.1 17.54C20.1 17.96 20.04 18.26 19.92 18.56C19.68 18.98 19.44 19.4 19.2 19.7C17.52 20.42 18 21.8 16.56 22.46C16.8 22.64 16.98 22.76 17.28 22.76L16.32 23.24L16.56 23.6C16.14 23.84 15.72 24.02 15.18 24.02C14.04 22.82 14.64 21.62 15.96 21.74C16.56 15.68 11.04 16.46 8.76 13.4C8.7 13.64 8.64 14 8.58 14.3C6.84 13.52 5.28 11.9 4.02 9.92001L3.96 10.7C2.94 9.38001 2.16 7.94001 1.68 6.44001C1.38 7.40001 1.14 9.08001 1.32 10.28L1.02 9.86001C0.420002 12.14 0.480002 13.64 1.74 15.62C1.92 16.88 2.46 18.14 3.06 19.1C2.7 19.04 2.46 18.98 2.1 18.98C2.76 20.24 3.54 21.44 4.26 22.22L3.24 22.52C4.14 23.9 5.16 24.8 6.36 25.58C5.82 25.7 5.58 25.88 5.16 26.18C5.94 27.02 6.6 27.44 7.68 27.74C6.84 28.04 6.48 28.4 6.24 29.06C7.32 29.42 8.52 29.66 9.72 29.6C9 30.02 8.34 30.5 7.98 31.16L7.74 31.04C7.62 30.98 7.56 30.98 7.44 30.98C7.2 30.98 6.9 31.16 6.84 31.4C6.84 31.46 6.78 31.52 6.78 31.52V31.64C6.72 31.7 6.6 31.76 6.54 31.82L6.24 31.7C6.12 31.64 6 31.64 5.88 31.64C5.58 31.64 5.28 31.82 5.16 32.12C4.98 32.54 5.16 32.96 5.52 33.2L5.76 33.32H5.82C5.82 33.44 5.82 33.5 5.82 33.62L5.76 33.74C5.76 33.8 5.7 33.8 5.7 33.86C5.64 34.04 5.64 34.22 5.7 34.4C5.76 34.58 5.88 34.7 6.06 34.82L6.54 35.06L6.42 35L6.66 35.12L7.5 35.54L7.56 35.6C6.96 36.32 6.24 36.74 5.4 36.74C5.28 36.74 5.16 36.74 4.98 36.74L4.8 36.62H4.74C4.38 36.56 4.02 36.44 3.66 36.26L3.24 36.02L3.36 36.5C3.6 37.64 4.62 38.78 6.18 39.8C7.68 40.7 9.3 41.24 10.68 41.24C11.4 41.24 12 41.06 12.42 40.76L12.84 40.46L12.36 40.34C12 40.22 11.64 40.04 11.4 39.86L11.16 39.8L10.98 39.62C10.14 38.84 10.14 37.7 10.38 36.86H10.44L11.28 37.28L11.52 37.4L11.58 37.28L13.32 38.12C13.26 40.82 12.42 42.5 10.86 44.24H10.8C10.56 44.3 10.38 44.54 10.32 44.78C10.26 44.84 10.2 44.9 10.14 44.96C10.14 44.96 10.14 44.96 10.08 44.96C9.96 44.78 9.78 44.66 9.54 44.66C9.48 44.66 9.42 44.66 9.36 44.72L9.06 44.84C8.88 44.9 8.76 45.02 8.7 45.14C8.64 45.26 8.64 45.38 8.64 45.56C8.58 45.56 8.46 45.62 8.4 45.62C8.28 45.38 8.04 45.2 7.8 45.2C7.74 45.2 7.68 45.2 7.56 45.26L7.38 45.32C7.02 45.44 6.84 45.74 6.96 46.1C6.18 46.34 5.4 46.64 4.68 46.82C4.8 48.68 5.4 50.24 6.6 51.68C8.46 50.78 10.26 49.88 12 49.04C12.06 49.1 12.18 49.16 12.3 49.16C12.36 49.16 12.42 49.16 12.48 49.1L12.72 49.04C13.02 48.92 13.38 48.62 13.56 48.32C16.08 47.12 18.42 46.04 20.46 45.14C20.52 45.86 20.58 46.52 20.82 47C21.3 46.82 21.72 46.7 22.14 46.34C22.14 46.58 22.26 46.82 22.32 47.12L21.42 48.08L22.02 48.68L22.92 47.84C23.04 48.5 23.76 49.46 24.18 49.7C24.48 49.46 25.26 48.44 25.44 47.84L26.34 48.68L26.94 48.08L26.04 47.12C26.16 46.88 26.22 46.64 26.22 46.34C26.64 46.64 27.06 46.82 27.54 47C27.72 46.52 27.84 45.92 27.9 45.14L28.14 45.26L28.26 45.14L32.58 47.24L32.94 47.42L33.06 47.6L33.12 47.66H33.18L33.78 47.96L33.96 48.02C34.14 48.32 34.62 49.1 35.46 49.04C35.64 49.04 35.76 48.98 35.88 48.92L36.48 49.22L36.72 49.34L36.78 49.22L39 50.24L38.94 50.36L39.18 50.48L40.02 50.9L40.26 51.02L40.32 50.9L40.98 51.2C40.8 51.2 40.92 51.2 40.98 51.2C41.22 51.2 41.52 51.02 41.58 50.78C41.58 50.72 41.64 50.66 41.64 50.66V50.54C41.7 50.48 41.82 50.48 41.88 50.36H41.94L42.3 50.54C42.42 50.6 42.54 50.6 42.66 50.6C42.96 50.6 43.26 50.42 43.38 50.12C43.56 49.7 43.38 49.28 43.02 49.04L42.72 48.86C42.72 48.74 42.72 48.68 42.72 48.56L42.78 48.5C42.84 48.44 42.84 48.44 42.84 48.38C42.9 48.2 42.9 48.02 42.84 47.84C42.78 47.66 42.6 47.66 42.48 47.6L41.76 47.24L41.82 47.12L41.58 47L40.74 46.58L40.5 46.46L40.56 46.34C40.68 46.04 40.44 45.68 40.26 45.62L39.96 45.5C39.66 45.38 39.3 45.5 39.18 45.8L39.12 45.92L38.88 45.8L38.94 45.62C39.06 45.32 38.94 44.96 38.58 44.78L38.28 44.66C38.1 44.6 37.86 44.66 37.74 44.72C35.94 42.8 34.98 41.18 34.86 39.08C37.68 38 40.86 36.86 44.22 35.78C43.86 34.04 43.2 32.42 42.3 30.92L41.46 31.4L40.74 30.02C40.38 30.26 40.02 30.44 39.6 30.68C39.24 30.32 38.76 29.96 38.28 29.72C39.48 29.78 40.74 29.54 41.76 29.18C41.46 28.58 41.1 28.16 40.32 27.86C41.4 27.56 42.12 27.14 42.84 26.3C42.42 26 42.18 25.82 41.64 25.7C42.84 24.92 43.8 24.02 44.76 22.64L43.74 22.34C44.46 21.56 45.24 20.36 45.9 19.1C45.54 19.1 45.3 19.1 44.94 19.22C45.6 18.32 46.08 17 46.26 15.74C47.52 13.64 47.58 12.2 46.98 9.92001ZM29.52 36.2C29.46 36.26 29.34 36.26 29.28 36.32L29.34 35.9L29.52 36.2ZM23.58 8.96001H24H24.42C24.78 10.34 25.62 11.3 26.82 12.08C26.82 12.08 26.04 13.22 24.66 13.7C24.78 13.88 24.84 13.88 25.02 14C24.54 14.42 24 15.44 24 15.44V15.5V15.44C24 15.44 23.46 14.42 22.98 14C23.1 13.88 23.22 13.88 23.34 13.7C21.96 13.22 21.18 12.08 21.18 12.08C22.38 11.3 23.28 10.34 23.58 8.96001ZM18.72 36.26L18.48 36.2L18.66 35.9L18.72 36.26ZM9.54 31.82C10.02 31.76 10.5 31.7 10.92 31.58C10.68 31.76 10.44 32.06 10.32 32.3L9.48 31.94L9.54 31.82ZM14.16 43.46C15 42.5 15.78 41.48 16.26 39.56L18.48 40.58L18.84 40.76L18.96 40.94L19.02 41H19.08L19.38 41.18L17.28 42.2C16.26 42.56 15.12 43.04 14.16 43.46ZM33.9 43.52L31.32 42.32L30.96 42.14L30.84 41.96L30.78 41.9H30.72L29.46 41.3C30.18 41 31.02 40.7 31.86 40.34C32.34 41.54 33 42.62 33.9 43.52ZM37.38 31.88C37.26 31.76 37.14 31.64 37.02 31.52C37.2 31.58 37.44 31.64 37.68 31.7C37.56 31.76 37.5 31.82 37.38 31.88Z" fill="#231F20"/>
<path d="M16.44 11.6C15.9 11.54 15.3 11.54 14.94 11.66C14.46 11.78 14.1 12.02 13.92 12.62C15.42 12.2 15.54 13.04 16.92 13.34C16.5 13.52 15.42 13.52 14.82 13.16C15.24 13.82 15.78 14 17.76 13.94C17.1 13.4 17.46 12.2 16.44 11.6Z" fill="#FCD015"/>
<path d="M15.12 12.98C15.48 13.04 15.42 13.28 16.02 13.28C15.9 13.16 15.36 12.74 15.12 12.98Z" fill="#FCD015"/>
<path d="M31.44 11.6C31.98 11.54 32.58 11.54 32.94 11.66C33.42 11.78 33.78 12.02 33.96 12.62C32.46 12.2 32.34 13.04 30.96 13.34C31.38 13.52 32.46 13.52 33.06 13.16C32.64 13.82 32.1 14 30.12 13.94C30.78 13.4 30.48 12.2 31.44 11.6Z" fill="#FCD015"/>
<path d="M32.82 12.98C32.46 13.04 32.52 13.28 31.92 13.28C32.04 13.16 32.58 12.74 32.82 12.98Z" fill="#FCD015"/>
<path d="M23.94 39.5L25.62 42.92L24.18 43.52L22.56 40.04L23.94 39.5Z" fill="#221F1F"/>
<path d="M22.38 47.36L21.66 48.08L21.9 48.32L22.56 47.66C22.56 47.54 22.44 47.42 22.38 47.36Z" fill="#221F1F"/>
<path d="M25.68 47.36C25.62 47.48 25.56 47.54 25.44 47.6L26.1 48.26L26.34 48.02L25.68 47.36Z" fill="#221F1F"/>
<path d="M17.22 10.22V10.58C18.12 10.52 18.84 10.64 19.68 10.7V10.22C18.9 10.1 18.06 10.1 17.22 10.22Z" fill="#FFC112"/>
<path d="M17.34 8.24L17.1 8.06C16.92 8.06 16.74 8.18 16.62 8.36C16.08 9.02 16.8 9.74 17.16 10.04H17.28C17.46 10.04 17.7 9.98 17.88 9.98C17.88 9.26 17.76 8.6 17.34 8.24Z" fill="#FFC112"/>
<path d="M19.8 8.06L19.56 8.24C19.14 8.6 19.08 9.26 19.02 9.98C19.2 9.98 19.44 10.04 19.62 10.04H19.74C20.1 9.74 20.82 9.02 20.28 8.36C20.16 8.12 19.98 8.06 19.8 8.06Z" fill="#FFC112"/>
<path d="M18.4799 7.94002C18.6125 7.94002 18.7199 7.83257 18.7199 7.70002C18.7199 7.56747 18.6125 7.46002 18.4799 7.46002C18.3474 7.46002 18.2399 7.56747 18.2399 7.70002C18.2399 7.83257 18.3474 7.94002 18.4799 7.94002Z" fill="#FFC112"/>
<path d="M18.06 9.92C18.18 9.92 18.3 9.92 18.48 9.92C18.6 9.92 18.72 9.92 18.9 9.92C18.9 9.14 19.02 8.42 19.5 8.06L18.9 8.24L18.78 8.06C18.72 8.12 18.6 8.12 18.54 8.12C18.42 8.12 18.36 8.06 18.3 8.06L18.18 8.24L17.58 8.06C17.94 8.48 18.06 9.2 18.06 9.92Z" fill="#FFC112"/>
<path d="M18.2399 7.22H18.6599L18.5999 6.98L18.8999 7.04V6.62L18.5999 6.68L18.6599 6.44H18.2399L18.3599 6.68L18.0599 6.62V7.04L18.3599 6.98L18.2399 7.22Z" fill="#FFC112"/>
<path d="M30.2999 10.16H30.2399C29.7599 10.1 29.2799 10.1 28.7399 10.16H28.6799C28.5599 10.16 28.4399 10.16 28.3199 10.22V10.7C29.0999 10.7 29.8199 10.52 30.7199 10.58V10.22C30.5399 10.16 30.4199 10.16 30.2999 10.16Z" fill="#FFC112"/>
<path d="M31.3199 8.3C31.1999 8.12 31.0199 8.06 30.8399 8L30.5999 8.24C30.1799 8.6 30.1199 9.26 30.0599 9.98C30.2399 9.98 30.4799 10.04 30.6599 10.04H30.7799C31.1399 9.74 31.8599 9.02 31.3199 8.3Z" fill="#FFC112"/>
<path d="M28.38 8.24L28.14 8.06C27.96 8.06 27.78 8.12 27.6 8.36C27.06 9.02 27.78 9.74 28.14 10.04H28.26C28.44 10.04 28.68 9.98 28.86 9.98C28.86 9.26 28.8 8.6 28.38 8.24Z" fill="#FFC112"/>
<path d="M29.46 7.94002C29.5925 7.94002 29.7 7.83257 29.7 7.70002C29.7 7.56747 29.5925 7.46002 29.46 7.46002C29.3274 7.46002 29.22 7.56747 29.22 7.70002C29.22 7.83257 29.3274 7.94002 29.46 7.94002Z" fill="#FFC112"/>
<path d="M29.0999 8.29999L28.4999 8.12C28.9799 8.48 29.0999 9.19999 29.0999 9.97999C29.2199 9.97999 29.3399 9.97999 29.5199 9.97999C29.6399 9.97999 29.7599 9.97999 29.9399 9.97999C29.9399 9.19999 30.0599 8.48 30.5399 8.12L29.9399 8.29999L29.8199 8.12C29.7599 8.18 29.6399 8.17999 29.5799 8.17999C29.4599 8.17999 29.3999 8.12 29.3399 8.12L29.0999 8.29999Z" fill="#FFC112"/>
<path d="M29.28 7.22H29.7L29.58 6.98L29.88 7.04V6.62L29.58 6.68L29.7 6.44H29.28L29.34 6.68L29.04 6.62V7.04L29.34 6.98L29.28 7.22Z" fill="#FFC112"/>
<path d="M20.52 4.15997V4.51997L20.82 4.63997V4.33997L20.52 4.15997Z" fill="#FFC112"/>
<path d="M23.9399 6.13995C22.3199 6.13995 20.9999 6.55995 20.9999 7.03995V7.81995C21.4799 7.33995 22.7399 7.15995 23.9399 7.15995C25.1399 7.15995 26.3399 7.39995 26.8799 7.81995V7.03995C26.8799 6.55995 25.5599 6.13995 23.9399 6.13995Z" fill="#FFC112"/>
<path d="M25.4399 4.52002C25.6799 3.50002 26.5199 2.96002 27.3599 2.78002C26.4599 2.60002 25.4399 3.02002 25.0799 3.62002C24.8999 3.92002 24.7799 4.28002 24.6599 4.58002C24.8999 4.46002 25.1999 4.46002 25.4399 4.52002Z" fill="#FFC112"/>
<path d="M22.44 4.51996C22.74 4.45996 22.98 4.45996 23.22 4.57996C23.1 4.21996 22.98 3.85996 22.8 3.55996C22.44 3.01996 21.42 2.53996 20.52 2.71996C21.36 2.95996 22.2 3.49996 22.44 4.51996Z" fill="#FFC112"/>
<path d="M21.12 8.06002C21.3 8.24002 21.6 8.42002 22.02 8.54002C22.08 8.24002 22.08 7.94002 22.14 7.58002C21.66 7.70002 21.3 7.88002 21.12 8.06002Z" fill="#FFC112"/>
<path d="M24.12 7.33997C24.06 7.33997 24 7.33997 23.94 7.33997C23.88 7.33997 23.82 7.33997 23.76 7.33997C23.76 7.81997 23.7 8.29997 23.58 8.71997C23.7 8.71997 23.82 8.71997 23.94 8.71997C24.06 8.71997 24.18 8.71997 24.3 8.71997C24.24 8.29997 24.18 7.87997 24.12 7.33997Z" fill="#FFC112"/>
<path d="M25.8 7.58002C25.8 7.94002 25.86 8.24002 25.92 8.54002C26.34 8.42002 26.64 8.24002 26.82 8.06002C26.64 7.88002 26.28 7.70002 25.8 7.58002Z" fill="#FFC112"/>
<path d="M23.94 3.25999C24.2382 3.25999 24.48 3.01823 24.48 2.71999C24.48 2.42176 24.2382 2.17999 23.94 2.17999C23.6417 2.17999 23.4 2.42176 23.4 2.71999C23.4 3.01823 23.6417 3.25999 23.94 3.25999Z" fill="#FFC112"/>
<path d="M23.58 1.94H24.24L24.06 1.4L24.6 1.58V0.919997L24.06 1.1L24.24 0.559998H23.58L23.82 1.1L23.22 0.919997V1.58L23.82 1.4L23.58 1.94Z" fill="#FFC112"/>
<path d="M27.12 4.63997L27.42 4.51997V4.15997L27.18 4.33997L27.12 4.63997Z" fill="#FFC112"/>
<path d="M28.3799 3.44002C28.2599 3.20002 28.08 3.08002 27.84 2.96002C26.94 3.02002 25.9199 3.50002 25.6799 4.70002V4.82002L25.5599 4.76002C25.1999 4.64002 24.9 4.70002 24.6 4.88002C24.54 5.12002 24.4799 5.30002 24.4799 5.42002C24.4199 5.66002 24.1799 5.78002 23.9999 5.78002C23.8199 5.78002 23.58 5.60002 23.52 5.42002C23.52 5.36002 23.4599 5.18002 23.3999 4.94002C23.1599 4.76002 22.8 4.76002 22.44 4.82002L22.32 4.88002V4.76002C22.08 3.56002 21.1199 3.08002 20.1599 3.02002C19.9799 3.14002 19.8 3.32002 19.62 3.50002C18.78 4.76002 20.4 6.26002 21 6.74002C21.4199 6.20002 22.7399 5.96002 23.9999 5.96002C25.3199 5.96002 26.6399 6.26002 26.9999 6.74002C27.5399 6.20002 29.1599 4.70002 28.3799 3.44002ZM20.4 4.70002L20.2799 4.64002V4.46002V4.16002V3.80002L20.64 3.98002L20.94 4.10002L21.0599 4.16002V4.34002V4.64002V5.00002L20.7 4.82002L20.4 4.70002ZM20.94 6.14002C20.82 6.14002 20.7599 6.08002 20.7599 5.96002C20.7599 5.84002 20.82 5.78002 20.94 5.78002C21.06 5.78002 21.12 5.84002 21.12 5.96002C21.12 6.02002 21.06 6.14002 20.94 6.14002ZM21.84 5.78002C21.72 5.78002 21.6599 5.72002 21.6599 5.60002C21.6599 5.48002 21.72 5.42002 21.84 5.42002C21.96 5.42002 22.02 5.48002 22.02 5.60002C22.02 5.66002 21.9 5.78002 21.84 5.78002ZM22.74 5.54002C22.62 5.54002 22.5599 5.48002 22.5599 5.36002C22.5599 5.24002 22.62 5.18002 22.74 5.18002C22.86 5.18002 22.92 5.24002 22.92 5.36002C22.92 5.48002 22.86 5.54002 22.74 5.54002ZM25.2 5.54002C25.08 5.54002 25.02 5.48002 25.02 5.36002C25.02 5.24002 25.08 5.18002 25.2 5.18002C25.32 5.18002 25.3799 5.24002 25.3799 5.36002C25.3799 5.48002 25.26 5.54002 25.2 5.54002ZM26.1 5.78002C25.98 5.78002 25.92 5.72002 25.92 5.60002C25.92 5.48002 25.98 5.42002 26.1 5.42002C26.22 5.42002 26.2799 5.48002 26.2799 5.60002C26.2799 5.66002 26.22 5.78002 26.1 5.78002ZM26.9999 6.14002C26.8799 6.14002 26.82 6.08002 26.82 5.96002C26.82 5.84002 26.8799 5.78002 26.9999 5.78002C27.1199 5.78002 27.1799 5.84002 27.1799 5.96002C27.1799 6.02002 27.1199 6.14002 26.9999 6.14002ZM26.8799 5.00002V4.64002V4.34002V4.16002L26.9999 4.10002L27.2999 3.98002L27.6599 3.80002V4.16002V4.46002V4.64002L27.54 4.70002L27.24 4.82002L26.8799 5.00002Z" fill="#FFC112"/>
<path d="M23.94 5.54C24.1056 5.54 24.24 5.40569 24.24 5.24C24.24 5.07432 24.1056 4.94 23.94 4.94C23.7743 4.94 23.64 5.07432 23.64 5.24C23.64 5.40569 23.7743 5.54 23.94 5.54Z" fill="#FFC112"/>
<path d="M23.58 4.82002C23.6999 4.70002 23.82 4.70002 23.94 4.70002C24.06 4.70002 24.2399 4.76002 24.2999 4.82002C24.3599 4.46002 24.5399 3.92002 24.8399 3.44002C24.8399 3.44002 24.8399 3.38002 24.8999 3.38002C24.8999 3.20002 24.7799 3.08002 24.5999 2.96002C24.4799 3.20002 24.2399 3.44002 23.8799 3.44002C23.58 3.44002 23.28 3.26002 23.16 2.96002C23.04 3.02002 22.92 3.14002 22.92 3.32002C22.92 3.38002 22.98 3.38002 22.98 3.44002C23.34 3.98002 23.52 4.46002 23.58 4.82002Z" fill="#FFC112"/>
<path d="M40.56 30.44C34.62 33.62 29.4 36.56 24.06 39.2L24.18 39.38V39.44C29.58 37.1 35.28 34.52 41.16 31.58C41.04 31.22 40.8 30.74 40.56 30.44Z" fill="#E0E0E0"/>
<path d="M22.38 40.16L22.32 40.04C21.12 40.64 19.86 41.18 18.66 41.72C19.86 41.24 21.12 40.76 22.38 40.16Z" fill="#E0E0E0"/>
<path d="M42 31.46C36.36 34.28 30.36 37.04 24.3 39.68L25.68 42.56C31.68 40.04 37.8 37.64 43.68 35.66C43.44 34.16 42.84 32.78 42 31.46Z" fill="#E0E0E0"/>
<path d="M11.82 44.6L12.12 45.5C12.18 45.68 12 45.86 12 46.1C12.06 46.94 11.52 47.54 11.52 47.54L11.22 47.78L11.1 47.42L10.32 45.14C10.32 45.2 10.26 45.2 10.2 45.2L10.68 46.58C10.86 47.18 10.56 48.02 10.5 48.02L10.38 48.26L10.14 48.2C10.14 48.2 9.53998 47.78 9.23998 47C9.17998 46.88 9.05998 46.88 8.99998 46.76L8.69998 45.8C8.63998 45.8 8.57999 45.86 8.45999 45.86L9.17998 48.02L9.29998 48.38H8.93998C8.87998 48.38 8.21998 48.38 7.67998 47.6C7.61998 47.48 7.31999 47.54 7.25999 47.36L6.95999 46.4C6.23999 46.64 5.57999 46.88 4.85999 47.12C5.09999 48.74 5.63999 50.18 6.59999 51.32C8.27998 50.48 10.02 49.64 11.82 48.8C11.82 48.74 11.88 48.62 11.94 48.5L12.66 47.3C12.66 47.3 12.54 46.94 12.6 46.52C13.14 46.64 13.56 46.88 13.74 47.24C13.8 47.42 13.8 47.72 13.68 47.96C16.98 46.4 20.4 44.9 23.82 43.46L22.5 40.4C18.96 41.9 15.36 43.34 11.82 44.6Z" fill="#E0E0E0"/>
<path d="M11.1 40.04C11.1 40.04 11.04 40.04 11.1 40.04C10.5 39.98 9.95998 39.92 9.41998 39.8L9.47998 39.56C9.89998 39.68 10.32 39.74 10.8 39.8C9.95998 39.02 9.83998 37.88 10.14 36.74L7.79998 35.6C7.07998 36.62 6.11998 37.04 4.97998 36.86C5.99998 37.94 7.13998 38.78 8.51998 39.26L8.45998 39.5C6.95998 38.96 5.69998 38.06 4.61998 36.8C4.25998 36.74 3.89998 36.56 3.53998 36.38C4.13998 39.2 10.08 42.02 12.18 40.52C11.76 40.4 11.4 40.22 11.1 40.04Z" fill="#E2E2E2"/>
<path d="M6.35999 32L6.05999 31.88C5.75998 31.76 5.45998 31.88 5.33998 32.12C5.21998 32.42 5.33998 32.72 5.57998 32.84L5.81998 32.96C5.93998 32.72 6.11999 32.6 6.35999 32.6C6.29999 32.42 6.29999 32.18 6.35999 32Z" fill="#A5A5A5"/>
<path d="M42.9 49.4L42.6 49.22C42.48 49.4 42.3 49.58 42.06 49.58C42.18 49.76 42.18 50 42.06 50.18L42.42 50.36C42.72 50.48 43.02 50.36 43.14 50.12C43.26 49.88 43.14 49.52 42.9 49.4Z" fill="#A5A5A5"/>
<path d="M40.5887 46.8316L38.9633 50.2441L39.83 50.6569L41.4554 47.2444L40.5887 46.8316Z" fill="#939393"/>
<path d="M12.1215 33.225L10.4961 36.6376L11.3628 37.0504L12.9882 33.6378L12.1215 33.225Z" fill="#939393"/>
<path d="M8.35391 31.4782L6.72852 34.8907L7.5952 35.3035L9.2206 31.891L8.35391 31.4782Z" fill="#939393"/>
<path d="M15.18 34.7L19.08 40.76L19.68 41.06C19.86 41 19.98 40.94 20.16 40.82L16.68 35.4199L15.18 34.7Z" fill="#939393"/>
<path d="M22.2 38.06L23.1 39.44C23.34 39.32 23.64 39.2 23.88 39.08L23.7 38.78L22.2 38.06Z" fill="#939393"/>
<path d="M25.8 42.74L25.92 42.98L25.68 43.1L25.5 43.16L26.04 44.06L27.48 44.78L26.1 42.62C26.04 42.68 25.92 42.74 25.8 42.74Z" fill="#939393"/>
<path d="M29.16 41.36L33.06 47.42L33.66 47.72C33.48 47.24 33.66 46.88 33.72 46.82L30.66 42.08L29.16 41.36Z" fill="#939393"/>
<path d="M37.38 45.26L37.14 45.2L36.06 47.66L35.94 47.54L35.46 48.56L36.3 48.98L36.78 47.96C36.72 47.72 36.54 47.12 36.78 46.64L37.38 45.26Z" fill="#939393"/>
<path d="M11.82 36.62L11.58 37.04L18.54 40.34L18 39.56L11.82 36.62Z" fill="#DBDBDB"/>
<path d="M16.8599 37.76L12.2999 35.54L11.8799 36.38L17.7599 39.2L16.8599 37.76Z" fill="#DBDBDB"/>
<path d="M15.66 35.9L12.78 34.52L12.42 35.36L16.62 37.34L15.66 35.9Z" fill="#DBDBDB"/>
<path d="M15 34.82L14.94 34.76L13.08 33.86L12.9 34.28L15.42 35.48L15 34.82Z" fill="#DBDBDB"/>
<path d="M5.87996 33.74L5.81996 33.8C5.69996 34.04 5.81996 34.28 6.05996 34.4L6.53996 34.64L6.71996 34.22L6.11996 33.92C6.05996 33.86 5.99996 33.8 5.87996 33.74Z" fill="#DBDBDB"/>
<path d="M8.0792 34.8342L7.8728 35.2675L10.3104 36.4285L10.5168 35.9952L8.0792 34.8342Z" fill="#DBDBDB"/>
<path d="M6.05996 33.0799C5.93995 33.3199 6.05995 33.5599 6.29996 33.6799L6.89996 33.9799L7.25996 33.1399L6.65996 32.8399C6.41996 32.7799 6.11996 32.8399 6.05996 33.0799Z" fill="#DBDBDB"/>
<path d="M8.56382 33.8139L8.17682 34.6265L10.6144 35.7875L11.0014 34.9749L8.56382 33.8139Z" fill="#DBDBDB"/>
<path d="M6.59993 32.06C6.47993 32.3 6.59993 32.54 6.83993 32.66L7.37993 32.9L7.73993 32.06L7.19993 31.88C6.95993 31.76 6.71993 31.82 6.59993 32.06Z" fill="#DBDBDB"/>
<path d="M9.0532 32.7151L8.6662 33.5276L11.1038 34.6887L11.4908 33.8761L9.0532 32.7151Z" fill="#DBDBDB"/>
<path d="M7.01996 31.58C7.13996 31.58 7.19996 31.58 7.31996 31.64L7.85996 31.88L8.03996 31.46L7.55996 31.22C7.31996 31.1 7.07996 31.22 6.95996 31.46C7.01996 31.52 7.01996 31.52 7.01996 31.58Z" fill="#DBDBDB"/>
<path d="M9.35734 32.0741L9.15094 32.5074L11.5885 33.6684L11.7949 33.2351L9.35734 32.0741Z" fill="#DBDBDB"/>
<path d="M27.2999 44L27.7199 44.66L27.7799 44.72L32.5199 47L32.0399 46.22L27.2999 44Z" fill="#DBDBDB"/>
<path d="M36.7983 48.4996L36.5919 48.933L38.8128 49.9908L39.0192 49.5574L36.7983 48.4996Z" fill="#DBDBDB"/>
<path d="M22.44 38.84L21.96 38.18L21.9 38.06L17.22 35.84L17.7 36.62L22.44 38.84Z" fill="#DBDBDB"/>
<path d="M42.3 47.78L41.58 47.42L41.4 47.84L42.24 48.26C42.36 48.32 42.42 48.38 42.48 48.44L42.54 48.38C42.66 48.14 42.54 47.9 42.3 47.78Z" fill="#DBDBDB"/>
<path d="M41.1 50.54L40.32 50.18L40.08 50.6L40.74 50.9C40.98 51.02 41.22 50.9 41.34 50.66C41.34 50.6 41.34 50.6 41.4 50.54C41.28 50.6 41.16 50.6 41.1 50.54Z" fill="#DBDBDB"/>
<path d="M41.58 49.52L40.8 49.16L40.44 50L41.22 50.36C41.46 50.48 41.7 50.36 41.82 50.12C41.88 49.88 41.82 49.64 41.58 49.52Z" fill="#DBDBDB"/>
<path d="M42.1199 48.5L41.28 48.08L40.92 48.92L41.76 49.34C41.9999 49.46 42.2399 49.34 42.3599 49.1C42.4799 48.86 42.3599 48.62 42.1199 48.5Z" fill="#DBDBDB"/>
<path d="M20.1 40.28L20.7 40.58C21.06 40.4 21.4199 40.28 21.7799 40.1L19.2 38.84L20.1 40.28Z" fill="#DBDBDB"/>
<path d="M17.94 36.98L18.84 38.42L22.02 39.92C22.32 39.8 22.56 39.68 22.86 39.5L22.68 39.2L17.94 36.98Z" fill="#DBDBDB"/>
<path d="M25.02 43.4L25.5 43.64L25.26 43.28L25.02 43.4Z" fill="#DBDBDB"/>
<path d="M28.9799 41.48C28.7999 41.54 28.6199 41.6 28.3799 41.66L29.4 42.14L28.9799 41.48Z" fill="#DBDBDB"/>
<path d="M29.64 42.56L28.08 41.84C27.72 42.02 27.36 42.14 26.94 42.32L30.54 44.06L29.64 42.56Z" fill="#DBDBDB"/>
<path d="M30.8399 44.42L26.6399 42.44C26.5199 42.5 26.4599 42.5 26.3399 42.56L26.9999 43.64L31.6799 45.86L30.8399 44.42Z" fill="#DBDBDB"/>
<path d="M35.52 45.08L35.76 44.66L31.2 42.5L31.68 43.28L35.52 45.08Z" fill="#DBDBDB"/>
<path d="M35.4599 45.38L31.9799 43.64L32.8799 45.08L35.4599 46.28C35.4599 46.1 35.5199 45.92 35.5199 45.8C35.4599 45.62 35.3399 45.56 35.4599 45.38Z" fill="#DBDBDB"/>
<path d="M33.1199 45.5L33.8399 46.64C34.2599 46.28 34.8599 46.34 34.8599 46.34L34.6799 46.94L34.8599 47.3L35.6399 47.66L35.8199 47.36C35.6999 47.18 35.5799 46.94 35.5199 46.58L33.1199 45.5Z" fill="#DBDBDB"/>
<path d="M35.34 48.26L35.52 47.9L35.04 47.66L35.34 48.26Z" fill="#DBDBDB"/>
<path d="M38.94 46.16L38.7 46.04L38.46 46.52L38.76 46.64L38.94 46.16Z" fill="#DBDBDB"/>
<path d="M38.64 46.82L38.4 46.7L38.28 46.94C38.22 47.06 38.1 46.94 37.86 47.42L38.22 47.6L38.64 46.82Z" fill="#DBDBDB"/>
<path d="M39.6 48.26L39.96 47.54C39.9 47.6 39.72 47.54 39.66 47.66C39.54 47.84 39.3 48.08 39.24 48.08L39.6 48.26Z" fill="#DBDBDB"/>
<path d="M38.34 48.38H37.98L38.1 48.02L38.16 47.9L37.8 47.66C37.5 48.02 37.02 48.32 37.02 48.32L39.18 49.34L39.54 48.5L39 48.26C38.64 48.32 38.4 48.38 38.34 48.38Z" fill="#DBDBDB"/>
<path d="M24.06 44.48C23.1 44.48 22.32 45.26 22.32 46.22C22.32 47.18 23.1 47.96 24.06 47.96C25.02 47.96 25.8 47.18 25.8 46.22C25.8 45.26 25.02 44.48 24.06 44.48ZM24.48 45.56C24.6 45.56 24.6 45.44 24.54 45.38C24.6 45.26 24.66 45.38 24.66 45.44C24.66 45.44 24.78 45.44 24.78 45.5C24.78 45.56 24.72 45.56 24.72 45.68C24.72 45.68 24.6 45.62 24.66 45.68C24.66 45.68 24.6 45.68 24.6 45.62C24.6 45.56 24.66 45.56 24.66 45.5C24.66 45.44 24.54 45.44 24.54 45.44C24.6 45.5 24.6 45.62 24.48 45.56C24.48 45.56 24.48 45.62 24.48 45.56ZM24.3 46.16H23.88C24 46.04 23.88 45.74 23.64 45.74C23.58 45.74 23.58 45.8 23.58 45.8V45.74C23.58 45.62 23.88 45.68 24 45.62C24 45.68 23.94 45.74 23.94 45.74C24 45.8 24.06 45.92 24.12 46.1C24.12 45.92 24.18 45.8 24.3 45.74C24.24 45.74 24.18 45.68 24.24 45.62C24.36 45.68 24.66 45.62 24.66 45.74V45.8C24.66 45.8 24.66 45.74 24.6 45.74C24.3 45.74 24.12 46.04 24.3 46.16ZM24.48 45.86C24.42 45.86 24.42 45.86 24.36 45.86L24.42 45.8C24.42 45.8 24.48 45.8 24.48 45.86ZM24.12 46.58C24.12 46.58 24.18 46.52 24.18 46.58C24.18 46.64 24.12 46.64 24.12 46.64L24 46.28H24.06C24.06 46.28 24.12 46.22 24.18 46.28V46.34V46.28C24.18 46.28 24.18 46.28 24.18 46.34V46.4C24.24 46.4 24.24 46.4 24.24 46.46C24.24 46.4 24.18 46.4 24.18 46.4C24.12 46.52 24.12 46.52 24.12 46.58ZM23.94 46.46C23.94 46.46 23.94 46.52 23.94 46.46C23.94 46.46 23.88 46.46 23.94 46.46C23.88 46.4 23.88 46.4 23.88 46.4C23.88 46.4 23.94 46.4 23.94 46.46C23.94 46.4 24 46.4 24 46.4C23.94 46.4 23.88 46.4 23.88 46.34L23.94 46.28V46.22L24.12 46.7C24.06 46.7 24 46.7 23.94 46.7C23.94 46.7 23.88 46.7 23.88 46.64C23.88 46.64 23.88 46.64 23.88 46.58C23.88 46.58 23.94 46.52 23.94 46.46ZM23.76 45.86C23.76 45.86 23.7 45.86 23.64 45.86C23.64 45.8 23.64 45.8 23.7 45.8C23.7 45.8 23.76 45.8 23.76 45.86ZM24.36 45.32V45.44V45.32ZM24.06 45.14L24.12 45.2L24.06 45.26L24 45.2L24.06 45.14ZM23.7 45.32V45.44V45.32ZM23.7 45.44H23.82C23.88 45.44 23.88 45.44 23.88 45.5C23.94 45.5 24 45.44 24 45.38L23.94 45.32C23.88 45.26 23.94 45.2 24 45.2L24.06 45.32L24.12 45.2C24.18 45.2 24.24 45.26 24.18 45.32L24.12 45.38C24.12 45.44 24.18 45.5 24.24 45.5C24.24 45.44 24.24 45.44 24.3 45.44L24.36 45.5L24.42 45.44C24.48 45.44 24.48 45.44 24.48 45.5L24.42 45.56H24.3C24.18 45.56 24.12 45.5 24.12 45.44H24C24 45.5 23.94 45.56 23.82 45.56H23.7C23.7 45.56 23.7 45.5 23.64 45.5C23.58 45.5 23.64 45.44 23.7 45.44ZM23.4 45.44C23.46 45.38 23.52 45.26 23.52 45.38C23.46 45.44 23.46 45.56 23.58 45.56C23.46 45.56 23.46 45.5 23.46 45.44C23.46 45.44 23.34 45.44 23.34 45.5C23.34 45.56 23.4 45.56 23.4 45.62C23.4 45.62 23.4 45.68 23.34 45.68C23.34 45.62 23.28 45.62 23.28 45.68C23.34 45.56 23.22 45.56 23.22 45.5C23.28 45.44 23.4 45.5 23.4 45.44ZM22.98 46.04C23.04 46.04 23.1 46.04 23.04 45.98C22.98 45.92 22.92 45.8 22.98 45.74C22.98 45.74 23.16 45.8 23.1 45.74C23.04 45.62 23.04 45.5 23.1 45.44C23.1 45.5 23.34 45.8 23.58 45.98C23.58 45.98 23.52 46.04 23.52 46.1C23.52 46.16 23.58 46.22 23.64 46.22C23.7 46.22 23.7 46.22 23.76 46.22V46.4C23.76 46.34 23.64 46.28 23.58 46.28C23.58 46.34 23.52 46.4 23.52 46.46C23.46 46.52 23.4 46.52 23.34 46.46C23.34 46.46 23.4 46.34 23.34 46.4C23.28 46.46 23.22 46.4 23.16 46.34C23.22 46.34 23.22 46.28 23.16 46.28C23.1 46.28 22.98 46.28 22.98 46.16C22.98 46.16 23.1 46.1 23.04 46.1C23.04 46.22 22.98 46.16 22.98 46.04ZM24.66 47C24.6 47 24.54 47 24.54 46.94C24.48 46.88 24.42 46.88 24.3 46.88C24.36 46.82 24.24 46.76 24.18 46.82C24.12 46.82 24.12 46.88 24.12 46.94C24.24 46.94 24.42 47.06 24.42 47.12C24.42 47.18 24.42 47.18 24.36 47.18C24.36 47.06 24.3 47.06 24.3 47.18C24.3 47.24 24.24 47.24 24.24 47.3C24.24 47.18 24.18 47.18 24.18 47.3C24.18 47.36 24.12 47.36 24.12 47.36L24.06 47.3C24.06 47.18 24 47.18 24 47.3C23.94 47.3 23.94 47.24 23.94 47.18C23.94 47.06 23.88 47.06 23.88 47.18C23.82 47.18 23.82 47.12 23.82 47.12C23.88 47.06 24 46.94 24.12 46.94C24.12 46.88 24.06 46.82 24.06 46.82C24 46.76 23.94 46.82 23.94 46.88C23.88 46.88 23.76 46.88 23.76 46.94L23.82 47L23.76 46.94H23.7C23.64 46.94 23.64 46.88 23.64 46.88V46.82L23.4 46.64H23.34C23.34 46.64 23.22 46.64 23.22 46.58H23.28C23.28 46.58 23.22 46.52 23.28 46.52C23.34 46.52 23.4 46.52 23.4 46.52V46.46C23.46 46.46 23.46 46.58 23.46 46.58C23.46 46.58 23.52 46.58 23.46 46.64L23.7 46.88H23.76C23.82 46.88 23.94 46.88 23.94 46.82C23.82 46.64 23.94 46.52 24 46.52V46.64C24 46.7 24.06 46.7 24.06 46.7H24.12C24.18 46.7 24.24 46.76 24.24 46.76C24.24 46.76 24.3 46.7 24.36 46.7H24.42C24.48 46.7 24.48 46.64 24.48 46.64V46.52C24.6 46.52 24.72 46.64 24.54 46.82L24.66 46.88C24.66 46.82 24.66 46.82 24.72 46.82L24.78 46.88L24.84 46.82C24.9 46.82 24.9 46.88 24.9 46.94C24.78 46.94 24.72 47 24.66 47ZM24.6 46.7H24.72H24.6ZM25.14 46.04C25.14 46.1 25.08 46.22 25.02 46.22C24.9 46.22 25.02 46.28 25.08 46.28C25.08 46.34 25.02 46.4 24.9 46.4C24.84 46.4 24.84 46.46 24.9 46.46C24.84 46.52 24.78 46.52 24.72 46.52C24.66 46.52 24.72 46.58 24.72 46.58C24.66 46.64 24.6 46.64 24.54 46.58C24.48 46.52 24.48 46.46 24.48 46.4C24.42 46.4 24.36 46.4 24.3 46.52V46.34C24.36 46.34 24.42 46.34 24.42 46.34C24.48 46.34 24.54 46.28 24.54 46.22C24.54 46.16 24.54 46.16 24.48 46.1C24.72 45.98 24.9 45.62 24.96 45.56C25.02 45.62 25.02 45.74 24.96 45.86C24.9 45.92 25.08 45.86 25.08 45.86C25.14 45.92 25.08 46.04 25.02 46.1C24.96 46.04 25.08 46.04 25.14 46.04Z" fill="#D0D2D3"/>
<path d="M13.68 7.87994C13.2 7.99994 13.02 8.05994 12.72 8.17994C12.18 9.49994 13.2 10.9999 14.4 11.7199C14.64 11.5999 15.12 11.3599 15.66 11.4199C14.28 10.5799 13.14 9.37994 13.68 7.87994Z" fill="#1FC150"/>
<path d="M34.26 7.87994C34.74 7.99994 34.92 8.05994 35.22 8.17994C35.7 9.49994 34.74 10.9999 33.54 11.7199C33.3 11.5999 32.82 11.3599 32.28 11.4199C33.72 10.5799 34.8 9.37994 34.26 7.87994Z" fill="#1FC150"/>
<path d="M12.72 10.46C11.7 10.46 10.32 9.43997 9.23999 10.1L9.47999 10.94C10.62 10.46 11.64 11.66 13.32 11.24C13.08 10.94 12.9 10.7 12.72 10.46Z" fill="#1FC150"/>
<path d="M14.04 9.73995C14.16 9.97995 14.4 10.2199 14.64 10.3999C15.24 9.61995 15.06 8.05994 13.92 7.87994V7.93994C13.8 8.17994 13.8 8.41994 13.74 8.59994C14.1 8.89995 14.16 9.31995 14.04 9.73995Z" fill="#1FC150"/>
<path d="M35.22 10.4599C35.04 10.6999 34.86 10.9999 34.62 11.1799C36.3 11.5999 37.32 10.3999 38.46 10.8799L38.7 10.0399C37.62 9.43994 36.24 10.4599 35.22 10.4599Z" fill="#1FC150"/>
<path d="M33.9 9.73995C33.78 9.37995 33.84 8.89995 34.2 8.59994C34.2 8.41994 34.14 8.17994 34.02 7.93994V7.87994C32.88 8.05994 32.76 9.61995 33.3 10.3999C33.54 10.1599 33.78 9.97995 33.9 9.73995Z" fill="#1FC150"/>
<path d="M20.9399 11.9C22.4999 11.06 23.4599 9.61997 23.5199 7.33997C23.0999 7.33997 22.6799 7.39997 22.3199 7.45997C22.3199 8.95997 21.8399 9.97997 20.9399 10.64C21.1799 10.58 21.3599 10.52 21.5399 10.46L22.1399 10.16L21.8399 10.76C21.5999 11.36 21.2999 11.72 20.9399 11.9Z" fill="#1FC150"/>
<path d="M26.94 11.9C26.64 11.72 26.28 11.36 26.04 10.82L25.74 10.22L26.34 10.52C26.52 10.58 26.7 10.64 26.94 10.7C26.04 10.04 25.56 9.01997 25.56 7.51996C25.2 7.45996 24.84 7.39996 24.36 7.39996C24.48 9.61997 25.44 11.12 26.94 11.9Z" fill="#1FC150"/>
<path d="M28.44 22.88L28.2 22.7V22.04H27.6L27.42 21.74C26.76 20.48 25.5 19.7 24.12 19.7H23.82C22.44 19.7 21.12 20.48 20.52 21.74L20.34 22.04H19.8V22.7L19.56 22.88C17.88 24.14 16.92 26.06 16.92 28.1C16.92 30.14 17.88 32.06 19.56 33.32L19.8 33.5V34.1599H20.34L20.52 34.4599C21.18 35.7199 22.44 36.5 23.82 36.5H24.12C25.5 36.5 26.82 35.7199 27.42 34.4599L27.6 34.1599H28.2V33.5L28.44 33.32C30.12 32.06 31.08 30.14 31.08 28.1C31.08 26.06 30.12 24.2 28.44 22.88ZM26.34 33.8H21.54V32.7799H21.9V32.24H22.14V31.7599H22.56V28.52H21.96V26.84H22.56V26.54H22.32V26.12H22.08V25.22H22.32V24.8H22.62V24.5C22.2 24.08 21.78 23.3 22.2 22.76C22.62 22.22 23.46 22.58 23.46 22.58C23.46 22.52 23.46 22.34 23.46 22.28H23.4L23.46 22.16L23.34 22.22V21.26L23.46 21.32L23.4 21.2H24.36L24.3 21.32L24.42 21.26V22.22L24.3 22.16L24.36 22.28H24.3C24.3 22.34 24.3 22.52 24.3 22.58C24.3 22.58 25.2 22.22 25.56 22.76C25.98 23.36 25.56 24.08 25.2 24.5V24.8H25.5V25.22H25.8V26.12H25.56V26.54H25.32V26.84H25.92V28.52H25.32V31.7599H25.74V32.24H25.98V32.7799H26.34V33.8V33.8Z" fill="#1FC150"/>
<path d="M22.8 24.2H23.4C23.4 23.66 23.28 23 22.98 22.7L22.8 22.52C22.62 22.52 22.5 22.58 22.38 22.76C22.02 23.3 22.5 23.96 22.8 24.2Z" fill="#FFD400"/>
<path d="M25.32 24.92H22.56V25.16H25.32V24.92Z" fill="#FFD400"/>
<path d="M25.5 25.34H22.32V25.76H25.5V25.34Z" fill="#FFD400"/>
<path d="M25.08 26.42H22.86V26.84H25.08V26.42Z" fill="#FFD400"/>
<path d="M25.02 24.38H22.86V24.74H25.02V24.38Z" fill="#FFD400"/>
<path d="M25.02 24.2C25.32 23.9 25.8 23.3 25.44 22.82C25.32 22.64 25.2 22.58 25.02 22.58L24.84 22.76C24.54 23 24.42 23.72 24.42 24.26H25.02V24.2Z" fill="#FFD400"/>
<path d="M23.76 21.92H24.12L24.06 21.68L24.24 21.74V21.44L24.06 21.5L24.12 21.26H23.76L23.82 21.5L23.58 21.44V21.74L23.82 21.68L23.76 21.92Z" fill="#FFD400"/>
<path d="M23.94 22.52C24.0726 22.52 24.18 22.4125 24.18 22.28C24.18 22.1474 24.0726 22.04 23.94 22.04C23.8075 22.04 23.7 22.1474 23.7 22.28C23.7 22.4125 23.8075 22.52 23.94 22.52Z" fill="#FFD400"/>
<path d="M23.58 24.2H24.24C24.24 23.6 24.36 22.88 24.72 22.58L24.24 22.76L24.18 22.58C24.12 22.64 24.06 22.64 23.94 22.64C23.88 22.64 23.76 22.64 23.7 22.58L23.64 22.76L23.16 22.58C23.52 22.88 23.58 23.6 23.58 24.2Z" fill="#FFD400"/>
<path d="M25.32 26H22.56V26.24H25.32V26Z" fill="#FFD400"/>
<path d="M25.44 32H22.38V32.3H25.44V32Z" fill="#FFD400"/>
<path d="M25.74 32.42H22.14V32.78H25.74V32.42Z" fill="#FFD400"/>
<path d="M26.1 32.96H21.78V33.5H26.1V32.96Z" fill="#FFD400"/>
<path d="M25.08 31.82V28.4H22.86V31.76H25.08V31.82ZM24.54 28.76H24.72V31.34H24.54V28.76ZM23.88 28.76H24.06V31.34H23.88V28.76ZM23.22 28.76H23.4V31.34H23.22V28.76Z" fill="#FFD400"/>
<path d="M23.28 27.68H23.34V27.56L23.28 27.68Z" fill="#FFD400"/>
<path d="M22.2 27.02V28.22H25.62V27.02H22.2ZM22.86 27.92C22.8 27.92 22.74 27.92 22.68 27.86V27.74C22.68 27.74 22.68 27.74 22.74 27.74L22.8 27.8H22.86C22.92 27.8 22.98 27.8 22.98 27.74C22.98 27.68 22.98 27.68 22.86 27.68H22.8V27.68C22.86 27.68 22.86 27.68 22.86 27.62C22.86 27.56 22.8 27.56 22.8 27.56H22.74V27.62H22.68V27.5C22.74 27.5 22.8 27.44 22.86 27.44C22.98 27.44 23.04 27.5 23.04 27.56C23.04 27.62 23.04 27.68 22.98 27.68C23.04 27.68 23.04 27.74 23.04 27.8C23.04 27.86 22.92 27.92 22.86 27.92ZM23.64 27.86H23.4C23.4 27.86 23.4 27.86 23.4 27.8H23.46L23.4 27.74H23.22V27.8H23.28C23.28 27.8 23.28 27.8 23.28 27.86H23.1C23.1 27.86 23.1 27.86 23.1 27.8H23.16L23.34 27.38H23.4L23.64 27.86ZM24.18 27.92H24L23.82 27.68V27.8H23.88C23.88 27.8 23.88 27.8 23.88 27.86H23.64C23.64 27.86 23.64 27.86 23.64 27.8H23.7V27.44H23.64C23.64 27.44 23.64 27.44 23.64 27.38H23.88C23.88 27.38 23.88 27.38 23.88 27.44H23.82V27.62L23.94 27.44C23.94 27.44 23.94 27.44 23.94 27.38H24.12C24.12 27.38 24.12 27.38 24.12 27.44H24.06L23.94 27.56L24.12 27.8L24.18 27.92C24.18 27.86 24.18 27.86 24.18 27.92ZM24.42 27.92C24.24 27.92 24.18 27.8 24.18 27.68C24.18 27.5 24.24 27.44 24.42 27.44C24.6 27.44 24.66 27.56 24.66 27.68C24.66 27.8 24.54 27.92 24.42 27.92ZM25.2 27.92H24.96C24.96 27.92 24.96 27.92 24.96 27.86H25.02V27.68H24.84V27.8H24.9C24.9 27.8 24.9 27.8 24.9 27.86H24.66C24.66 27.86 24.66 27.86 24.66 27.8H24.72V27.44H24.66C24.66 27.44 24.66 27.44 24.66 27.38H24.9C24.9 27.38 24.9 27.38 24.9 27.44H24.84V27.56H25.02V27.44H24.96C24.96 27.44 24.96 27.44 24.96 27.38H25.2C25.2 27.38 25.2 27.38 25.2 27.44H25.14V27.8L25.2 27.92C25.2 27.86 25.2 27.86 25.2 27.92Z" fill="#FFD400"/>
<path d="M24.42 27.4401C24.36 27.4401 24.3 27.5001 24.3 27.6201C24.3 27.7401 24.36 27.8001 24.42 27.8001C24.48 27.8001 24.54 27.6801 24.54 27.6201C24.48 27.5601 24.48 27.4401 24.42 27.4401Z" fill="#FFD400"/>
<path d="M37.44 45.02C37.5 45.02 37.5 45.02 37.44 45.02C37.38 44.84 37.32 44.78 37.2 44.66C37.2 44.72 37.26 44.84 37.2 44.9L37.44 45.02Z" fill="#FFE000"/>
<path d="M20.64 45.0199C20.64 45.5599 20.7 46.0999 20.82 46.6399C21.24 46.4599 21.66 46.2799 22.02 45.9799C22.08 45.3799 22.44 44.8399 22.98 44.5399C23.04 44.3599 23.1 44.1199 23.16 43.9399L20.64 45.0199Z" fill="#FFE000"/>
<path d="M23.88 43.58L23.46 43.76C23.4 43.94 23.34 44.18 23.28 44.36C23.52 44.3 23.76 44.24 24 44.24C24.24 44.24 24.48 44.3 24.72 44.36C24.66 44.12 24.6 43.88 24.54 43.64L24 43.88L23.88 43.58Z" fill="#FFE000"/>
<path d="M25.08 44.48C25.62 44.78 25.98 45.32 26.04 45.92C26.4 46.22 26.82 46.46 27.24 46.58C27.36 45.98 27.48 45.44 27.42 44.96L24.84 43.7C24.9 44 24.96 44.24 25.08 44.48Z" fill="#FFE000"/>
<path d="M23.16 48.02C23.34 48.44 23.64 49.04 24 49.34C24.36 49.04 24.72 48.44 24.9 48.02C24.6 48.32 23.52 48.32 23.16 48.02Z" fill="#FFE000"/>
<path d="M12.78 46.7599L13.02 47.9L12.72 47.48L12.12 48.5C11.94 48.74 12.06 48.92 12.3 48.8L12.54 48.74C12.78 48.68 13.14 48.38 13.26 48.08L13.38 47.9C13.92 47 12.78 46.7599 12.78 46.7599Z" fill="#FFE000"/>
<path d="M8.09998 47.18L8.63998 47.12L8.15999 45.68C8.09999 45.44 7.85999 45.32 7.61999 45.38L7.43998 45.44C7.19998 45.5 7.07998 45.74 7.13998 45.98L7.43998 46.94C7.49998 47.06 7.79999 47 7.85999 47.18C8.27998 47.96 8.93998 47.96 8.93998 47.96L8.75998 47.36L8.09998 47.18Z" fill="#FFE000"/>
<path d="M11.88 45.44L11.64 44.66C11.58 44.42 11.34 44.3 11.1 44.36L10.92 44.42C10.68 44.48 10.56 44.72 10.62 44.96L11.04 46.28L11.64 45.74L11.16 46.58L11.22 46.7L11.4 47.3C11.4 47.3 11.94 46.58 11.82 45.98C11.7 45.8 11.94 45.68 11.88 45.44Z" fill="#FFE000"/>
<path d="M9.89999 45.1399C9.83999 44.9599 9.59999 44.8399 9.41999 44.8999L9.11999 45.0199C8.93999 45.0799 8.81999 45.3199 8.87999 45.4999L9.23999 46.5799L10.08 46.9999H9.53999C9.65999 47.5399 9.95999 47.7799 10.32 48.0199C10.32 48.0199 10.62 47.2999 10.44 46.7599L9.89999 45.1399Z" fill="#FFE000"/>
<path d="M35.1 44.06L35.82 44.42C35.94 44.24 36.24 44 36.66 44.12L36.84 44.18C36.84 44.18 36.84 44.18 36.9 44.18C35.58 42.62 34.74 41.12 34.56 39.2L32.16 40.16C32.28 40.52 32.46 40.88 32.64 41.24L33.3 40.46L33.48 40.64L32.76 41.48C32.88 41.66 33 41.84 33.12 42.02L33.66 41.36L33.84 41.54L33.24 42.26C33.36 42.44 33.48 42.62 33.66 42.74L34.2 42.14L34.38 42.32L33.84 42.98C34.14 43.4 34.56 43.76 35.1 44.06Z" fill="#FFE000"/>
<path d="M11.28 44.1199C11.46 44.1199 11.64 44.2399 11.76 44.3599L13.44 43.6999C13.74 43.5199 13.98 43.2799 14.22 43.0399L13.62 42.3199L13.8 42.1399L14.4 42.8599C14.52 42.6799 14.64 42.5599 14.82 42.3799L14.04 41.5999L14.22 41.4199L14.82 42.1999C14.94 42.0199 15.06 41.8399 15.18 41.6599L14.4 40.6999L14.58 40.5199L15.3 41.3599C15.66 40.6399 15.9 39.9799 15.96 39.3799L13.5 38.2399C13.5 40.5199 12.72 42.3799 11.28 44.1199Z" fill="#FFE000"/>
<path d="M2.94003 12.14V11.48L3.36003 12.02C3.72003 12.5 4.08003 12.92 4.44003 13.28C4.20003 12.74 4.02003 12.08 3.96003 11.36C2.88003 9.79997 1.98003 8.29997 1.68003 7.15997C1.02003 10.28 1.86003 12.38 3.24003 14.06C3.06003 13.46 2.94003 12.86 2.94003 12.14Z" fill="#FFE000"/>
<path d="M8.69998 23.12C8.63998 23.06 8.63998 23 8.57998 22.94L8.21998 22.4L8.81998 22.58C9.23998 22.7 9.71998 22.76 10.26 22.76C9.29998 22.52 8.33998 22.04 7.67998 20.96C5.99998 20.18 4.31998 18.92 3.23998 17.42C2.81998 17.12 2.39998 16.82 2.03998 16.4C2.75998 19.52 5.81998 22.22 8.69998 23.12Z" fill="#FFE000"/>
<path d="M9.60003 20.5999C8.58003 20.1799 7.86003 19.4599 7.44003 18.7399C6.18003 18.0799 4.74003 16.9999 3.84003 15.4399C3.30003 15.0199 2.82003 14.5399 2.28003 13.9399C2.40003 16.9999 4.92003 19.3399 7.50003 20.5999C7.44003 20.5399 7.44003 20.4799 7.38003 20.3599L7.14003 19.8199L7.68003 20.0599C8.34003 20.3599 9.00003 20.4799 9.60003 20.5999Z" fill="#FFE000"/>
<path d="M7.62002 16.4C7.56002 16.22 7.56002 16.04 7.50002 15.86L7.44002 15.32L7.86002 15.62C8.34002 15.98 8.82002 16.22 9.30002 16.46C8.88002 16.1 8.52002 15.5 8.46002 14.66C6.36002 13.64 5.40002 12.38 4.08002 10.82C4.26002 13.58 5.82002 15.14 7.62002 16.4Z" fill="#FFE000"/>
<path d="M12.06 27.62C12.3 27.26 12.6 26.96 12.96 26.78C12.42 26.84 11.88 26.84 11.34 26.84C9.60002 26.84 8.04002 26.48 6.72002 25.82C6.30002 25.94 5.94002 26.06 5.58002 26.3C6.78002 27.62 9.24002 28.16 12.06 27.62Z" fill="#FFE000"/>
<path d="M13.92 28.22C13.8 28.22 13.62 28.22 13.44 28.22C13.02 28.22 12.6 28.16 12.12 28.1L11.76 28.04L11.88 27.86C11.22 27.98 10.56 28.04 9.89998 28.04C9.29998 28.04 8.75998 27.98 8.21998 27.92C7.37998 28.16 6.77998 28.46 6.53998 29C9.23998 29.78 11.52 29.36 13.92 28.22Z" fill="#FFE000"/>
<path d="M13.56 26.42H13.5C12.78 26.42 11.88 26.3 10.8 26.06L10.44 26L10.62 25.7C10.68 25.58 10.8 25.46 10.86 25.34C8.22004 25.22 6.06003 24.26 4.38003 22.46C4.08003 22.52 3.84003 22.64 3.66003 22.64C5.94003 26.24 9.66004 26.96 13.56 26.42Z" fill="#FFE000"/>
<path d="M11.1 25.1C11.22 24.98 11.34 24.86 11.46 24.8C10.38 24.56 9.53996 24.08 8.99996 23.42C7.79996 23.12 6.47996 22.46 5.33996 21.5C4.49996 20.84 3.83996 20.12 3.23996 19.34C2.93996 19.28 2.63996 19.22 2.45996 19.22C4.25996 22.88 7.01996 24.98 11.1 25.1Z" fill="#FFE000"/>
<path d="M9.96001 16.5799C12.36 17.6599 14.64 18.1999 14.94 20.7799C13.92 17.4199 10.92 17.9599 7.74001 15.7999C7.86001 17.0599 8.76001 17.8999 10.14 18.4399C11.88 19.0399 13.62 19.5799 14.28 21.3199C12.42 18.6199 9.54001 19.3999 7.26001 17.6599C7.56001 18.7399 8.58001 20.2999 10.68 20.5999C12.18 20.9599 12.96 21.1999 13.74 22.3399C12.12 20.6599 9.72001 21.1399 7.56001 20.2399C8.88001 23.2999 12 22.3399 13.8 23.5999C12.24 22.8799 10.08 23.2399 8.76001 22.8199C9.42001 23.8399 10.5 24.3799 11.7 24.6199C12.36 24.1999 13.08 24.1999 13.86 24.1399C14.16 24.1399 14.52 24.0799 14.82 24.0799C13.92 23.1199 14.1 21.4399 15.66 21.4999C15.84 15.9799 10.74 16.3399 8.76001 13.9399C8.58001 15.4399 9.30001 16.2199 9.96001 16.5799Z" fill="#FFE000"/>
<path d="M19.08 11.84C19.68 12.08 20.94 12.2 21.66 10.7C21.12 11 20.4 11 19.8 10.94C18.96 10.88 18.12 10.7 17.22 10.76C16.98 10.76 16.56 11 16.5 11.3C18.06 11 18.48 11.6 19.08 11.84Z" fill="#FFE000"/>
<path d="M22.62 15.2599C22.62 15.7399 22.62 16.2199 22.38 16.5799L22.08 17.0599L21.96 16.5199C21.9 16.3399 21.84 16.1599 21.78 15.9799C21.66 16.3399 21.54 16.6999 21.3 16.9999L20.94 17.5399L20.88 16.8799C20.88 16.7599 20.88 16.6999 20.82 16.5799C20.76 16.8199 20.64 17.0599 20.46 17.2999L20.4 17.4199C20.34 17.8399 20.28 18.2599 20.22 18.4999C20.76 18.3799 21.42 17.6599 21.66 17.0599C21.78 17.4199 22.02 17.8999 22.26 18.0799C22.68 17.5999 22.8 16.9999 22.92 16.2799C23.16 16.6399 23.46 16.7599 24 16.8199C24.54 16.7599 24.84 16.5799 25.08 16.2799C25.14 16.9999 25.32 17.5999 25.74 18.0799C25.92 17.8999 26.22 17.4199 26.34 17.0599C26.58 17.5999 27.24 18.3799 27.78 18.4999C27.72 18.2599 27.66 17.8399 27.6 17.4199L27.54 17.3599C27.36 17.1199 27.24 16.8799 27.18 16.64C27.18 16.7 27.18 16.82 27.12 16.9399L27 17.5399L26.64 16.9999C26.4 16.6999 26.28 16.3399 26.16 15.9799C26.1 16.1599 26.04 16.3399 25.98 16.5199L25.86 17.0599L25.56 16.5799C25.32 16.2199 25.32 15.7399 25.32 15.2599C25.02 15.5599 24.66 15.7999 24.36 15.9799C24.3 16.2799 24.12 16.5799 23.94 16.8199C23.76 16.5799 23.64 16.2199 23.52 15.9799C23.28 15.7999 22.92 15.5599 22.62 15.2599Z" fill="#FFE000"/>
<path d="M20.82 12.02C19.8 12.56 18.96 12.14 18.48 11.78C17.88 11.36 17.28 11.36 16.68 11.48C17.82 12.2 17.4 13.52 18.18 13.88C18.54 14.12 19.38 14.66 19.74 15.62C19.92 15.32 20.1 14.24 19.14 13.04C19.38 13.16 19.68 13.52 19.68 13.52C20.28 13.88 20.76 14.3 21.06 14.78C21.18 14.06 20.82 13.4 20.22 12.68C21.18 13.82 22.26 13.88 22.98 13.64C22.14 13.58 21.24 12.74 20.82 12.02ZM17.22 11.66C17.4 11.66 17.76 11.6 18.3 11.9C18.12 12.08 17.7 12.38 17.22 11.66Z" fill="#FFE000"/>
<path d="M21.12 13.82C21.24 14.12 21.3 14.48 21.24 14.9L21.12 15.56L20.76 15.02C20.52 14.66 20.22 14.36 19.86 14.12C20.1 14.84 20.04 15.38 19.92 15.74C20.1 16.22 20.22 16.76 20.22 17.24C20.58 16.7 20.7 16.16 20.7 15.56C20.88 15.98 21 16.4 21.06 16.88C21.42 16.34 21.6 15.8 21.66 15.2C21.9 15.62 22.08 16.04 22.14 16.46C22.44 16.04 22.32 15.26 22.26 14.6C22.68 15.08 23.34 15.68 23.76 15.86C23.52 15.2 23.04 14.6 22.56 14.12C22.5 14.06 21.66 14.18 21.12 13.82Z" fill="#FFE000"/>
<path d="M19.2 19.8799C17.7 20.6599 17.76 22.1599 16.98 22.4599C17.16 22.5199 17.28 22.5799 17.46 22.5799C17.64 22.3999 17.76 22.1599 17.88 21.9199C18.36 21.1999 18.9 20.2999 20.34 19.94C20.34 19.88 20.28 19.8199 20.28 19.7599C20.04 19.8199 19.86 19.8799 19.68 19.8799C19.62 19.8799 19.56 19.8799 19.5 19.8799H19.2Z" fill="#FFE000"/>
<path d="M10.14 18.74C8.93999 18.26 8.15999 17.6 7.79999 16.76C6.59999 16.04 5.57999 15.14 4.79999 14C4.19999 13.46 3.71999 12.86 3.17999 12.2C3.17999 15.26 5.15999 17.24 7.25999 18.38C7.19999 18.2 7.07999 17.96 7.01999 17.78L6.83999 17.06L7.37999 17.48C8.27999 18.14 9.17999 18.44 10.14 18.74Z" fill="#FFE000"/>
<path d="M2.04 14V13.28L2.52 13.82C2.94 14.36 3.36 14.72 3.78 15.08L3.06 14.18C2.28 13.22 1.74 12.14 1.44 11.06C1.32 10.82 1.2 10.58 1.08 10.34C0.419996 13.52 1.56 15.08 2.88 16.64C2.4 15.86 2.1 14.96 2.04 14Z" fill="#FFE000"/>
<path d="M13.32 32.6C13.02 32.78 12.72 32.9 12.36 33.02L13.14 33.38C13.14 33.2 13.26 32.9 13.32 32.6Z" fill="#FFE000"/>
<path d="M14.7 34.3399L14.94 34.4599L15.12 34.3399L15.54 34.5199C15.54 34.2199 15.54 33.7999 15.54 33.4399C15.3 33.7399 15 34.0999 14.7 34.3399Z" fill="#FFE000"/>
<path d="M16.8 35.12L17.1 35.24L17.28 35.54L17.76 35.78C17.64 35.3 17.58 34.7 17.58 34.16C17.34 34.52 17.1 34.82 16.8 35.12Z" fill="#FFE000"/>
<path d="M8.28003 31.16L9.12003 31.58C10.98 31.52 12.48 30.74 13.98 29.78V29.72C13.98 29.18 14.34 28.52 14.64 28.1C13.08 28.94 11.7 29.42 10.32 29.6C9.36003 30.08 8.58003 30.56 8.28003 31.16Z" fill="#FFE000"/>
<path d="M44.58 12.02L45 11.48V12.14C45 12.86 44.88 13.46 44.7 14.06C46.08 12.38 46.92 10.28 46.26 7.15997C45.96 8.29997 45.06 9.79997 43.98 11.36C43.92 12.08 43.74 12.68 43.5 13.28C43.86 12.86 44.22 12.44 44.58 12.02Z" fill="#FFE000"/>
<path d="M40.2 21.02C39.54 22.1 38.58 22.52 37.62 22.82C38.16 22.76 38.7 22.76 39.06 22.64L39.66 22.46L39.3 23C39.24 23.06 39.24 23.12 39.18 23.18C42.06 22.28 45.12 19.58 45.78 16.52C45.36 16.88 44.94 17.24 44.58 17.54C43.56 19.04 41.88 20.24 40.2 21.02Z" fill="#FFE000"/>
<path d="M40.44 20.6599C43.02 19.3399 45.54 16.9999 45.66 13.9999C45.18 14.5999 44.64 15.0799 44.1 15.4999C43.2 17.0599 41.7 18.0799 40.5 18.7999C40.08 19.5799 39.36 20.2399 38.34 20.6599C39 20.5399 39.6 20.4199 40.26 20.1799L40.8 19.9399L40.56 20.4799C40.5 20.4799 40.5 20.5999 40.44 20.6599Z" fill="#FFE000"/>
<path d="M38.58 16.46C39.06 16.22 39.54 15.98 40.02 15.62L40.44 15.32L40.38 15.86C40.38 16.04 40.32 16.22 40.26 16.4C42.12 15.2 43.62 13.58 43.74 10.88C42.48 12.44 41.52 13.7 39.36 14.72C39.36 15.5 39 16.1 38.58 16.46Z" fill="#FFE000"/>
<path d="M36.6 26.84C36.12 26.84 35.58 26.84 34.98 26.78C35.28 26.96 35.58 27.26 35.88 27.62C38.7 28.16 41.16 27.68 42.36 26.36C42 26.12 41.64 25.94 41.22 25.88C39.9 26.48 38.34 26.84 36.6 26.84Z" fill="#FFE000"/>
<path d="M39.72 27.92C39.18 28.04 38.64 28.04 38.04 28.04C37.38 28.04 36.72 27.98 36.06 27.86L36.18 28.04L35.82 28.1C35.34 28.22 34.92 28.22 34.5 28.22C34.32 28.22 34.2 28.22 34.02 28.22C36.36 29.36 38.7 29.78 41.34 29C41.16 28.46 40.56 28.16 39.72 27.92Z" fill="#FFE000"/>
<path d="M37.08 25.34C37.14 25.46 37.26 25.58 37.32 25.7L37.5 26L37.14 26.06C36.06 26.3 35.16 26.42 34.44 26.42H34.38C38.22 26.96 42 26.24 44.28 22.7C44.1 22.64 43.8 22.58 43.56 22.52C41.82 24.26 39.66 25.22 37.08 25.34Z" fill="#FFE000"/>
<path d="M42.66 21.56C41.52 22.46 40.2 23.12 39 23.48C38.4 24.14 37.56 24.62 36.54 24.86C36.66 24.98 36.78 25.04 36.9 25.16C40.98 24.98 43.74 22.88 45.6 19.34C45.42 19.34 45.12 19.4 44.82 19.46C44.16 20.18 43.5 20.9 42.66 21.56Z" fill="#FFE000"/>
<path d="M33.06 24.08C33.42 24.14 33.72 24.14 34.02 24.14C34.8 24.2 35.52 24.2 36.18 24.62C37.38 24.38 38.46 23.84 39.12 22.82C37.8 23.24 35.7 22.88 34.08 23.6C35.88 22.34 39 23.3 40.26 20.36C38.1 21.26 35.7 20.78 34.08 22.46C34.86 21.32 35.64 21.08 37.14 20.72C39.3 20.36 40.26 18.86 40.56 17.78C38.28 19.52 35.4 18.74 33.54 21.44C34.26 19.64 35.94 19.1 37.68 18.56C39.06 18.02 39.96 17.18 40.08 15.92C36.9 18.08 33.9 17.54 32.88 20.9C33.18 18.32 35.52 17.72 37.86 16.7C38.52 16.28 39.18 15.5 39.06 14.06C37.08 16.4 31.98 16.1 32.16 21.62C33.84 21.44 34.02 23.12 33.06 24.08Z" fill="#FFE000"/>
<path d="M28.86 11.84C29.46 11.54 29.88 11 31.44 11.3C31.38 11 31.02 10.76 30.72 10.76C29.82 10.7 28.98 10.88 28.14 10.94C27.54 11 26.82 11 26.28 10.7C27 12.2 28.26 12.08 28.86 11.84Z" fill="#FFE000"/>
<path d="M25.62 14.6C25.56 15.26 25.44 16.04 25.74 16.46C25.86 16.04 26.04 15.56 26.22 15.2C26.28 15.8 26.46 16.34 26.82 16.88C26.88 16.4 27 15.98 27.18 15.56C27.18 16.16 27.3 16.76 27.66 17.24C27.66 16.7 27.72 16.22 27.96 15.74C27.84 15.38 27.78 14.84 28.02 14.12C27.66 14.36 27.36 14.72 27.12 15.02L26.76 15.56L26.64 14.9C26.58 14.54 26.64 14.18 26.76 13.82C26.22 14.12 25.38 14.06 25.26 14.06C24.78 14.54 24.36 15.14 24.06 15.8C24.6 15.62 25.2 15.08 25.62 14.6Z" fill="#FFE000"/>
<path d="M28.74 19.88L28.5 19.94C28.44 19.94 28.38 19.94 28.32 19.94C28.14 19.94 27.9 19.88 27.72 19.82C27.72 19.88 27.66 19.94 27.66 20C29.1 20.3 29.64 21.2 30.12 21.98C30.24 22.22 30.42 22.46 30.54 22.64C30.72 22.64 30.84 22.58 31.02 22.52C30.18 22.16 30.24 20.66 28.74 19.88Z" fill="#FFE000"/>
<path d="M40.68 18.38C42.78 17.18 44.76 15.2 44.76 12.2C44.22 12.92 43.68 13.46 43.14 14C42.42 15.2 41.34 16.1 40.2 16.82C39.84 17.66 39.06 18.26 37.92 18.74H37.86C38.76 18.5 39.72 18.2 40.56 17.54L41.1 17.12L40.92 17.84C40.86 17.96 40.74 18.14 40.68 18.38Z" fill="#FFE000"/>
<path d="M44.16 15.08C44.58 14.72 45 14.3 45.42 13.82L45.9 13.28V14C45.84 14.96 45.6 15.92 45.12 16.76C46.44 15.14 47.58 13.64 46.92 10.46C46.8 10.7 46.68 10.94 46.56 11.18C46.26 12.32 45.72 13.34 44.94 14.3L44.16 15.08Z" fill="#FFE000"/>
<path d="M39.36 30.8C39 30.38 38.34 30.02 37.62 29.6C36.24 29.42 34.86 28.94 33.3 28.1C33.66 28.52 33.96 29.18 33.96 29.72V29.78C35.28 30.62 36.6 31.28 38.16 31.46C38.52 31.22 38.94 30.98 39.36 30.8Z" fill="#FFE000"/>
<path d="M35.34 32.96C35.1 32.84 34.86 32.72 34.62 32.6C34.68 32.84 34.68 33.08 34.74 33.26C34.98 33.2 35.16 33.08 35.34 32.96Z" fill="#FFE000"/>
<path d="M33.12 34.2199C32.88 33.9799 32.64 33.7399 32.4 33.4999C32.46 33.9199 32.46 34.2799 32.4 34.5799C32.64 34.4599 32.88 34.3399 33.12 34.2199Z" fill="#FFE000"/>
<path d="M30.12 35.78C30.48 35.6 30.84 35.36 31.26 35.18C30.96 34.82 30.66 34.52 30.42 34.16C30.36 34.82 30.3 35.36 30.12 35.78Z" fill="#FFE000"/>
<path d="M37.02 32.06C36.84 31.82 36.66 31.58 36.42 31.34C35.46 31.04 34.62 30.5 33.72 29.96H33.66C33.54 29.96 33.48 29.96 33.36 29.96C32.82 29.96 32.22 29.78 31.74 29.48C31.74 29.6 31.68 29.66 31.68 29.78C32.82 31.1 34.02 32.24 35.64 32.84C36.12 32.54 36.6 32.3 37.02 32.06Z" fill="#FFE000"/>
<path d="M34.5 33.44C34.5 33.14 34.44 32.84 34.32 32.48C33.3 31.88 32.4 31.04 31.62 30.08C31.5 30.44 31.38 30.8 31.26 31.16C31.74 32.3 32.4 33.26 33.36 34.1C33.72 33.86 34.14 33.68 34.5 33.44Z" fill="#FFE000"/>
<path d="M32.1 33.14C31.68 32.6 31.38 32 31.14 31.4C30.84 32 30.48 32.54 30 33.02C30.36 33.74 30.84 34.4 31.44 35.06C31.68 34.94 31.92 34.82 32.16 34.7C32.22 34.28 32.16 33.74 32.1 33.14Z" fill="#FFE000"/>
<path d="M30.12 33.7999C30 33.6199 29.88 33.4399 29.82 33.2599C29.58 33.4999 29.34 33.7399 29.04 33.9199V34.8199V34.9999C29.28 35.2999 29.52 35.5999 29.76 35.8999C30.06 35.4199 30.18 34.6999 30.12 33.7999Z" fill="#FFE000"/>
<path d="M28.14 35.0599C27.96 35.2999 27.84 35.5999 27.6 35.7799C27.78 36.0799 28.02 36.4399 28.26 36.7399C28.44 36.6199 28.62 36.5599 28.8 36.4399C28.92 36.1399 29.04 35.8399 29.1 35.4199C28.98 35.2999 28.86 35.1199 28.8 34.9999H28.14V35.0599Z" fill="#FFE000"/>
<path d="M27.42 35.96C27.06 36.32 26.64 36.68 26.16 36.92C26.4 37.1 26.64 37.28 26.88 37.46C27.18 37.28 27.54 37.16 27.84 36.98C27.84 36.8 27.78 36.68 27.72 36.5C27.6 36.32 27.54 36.14 27.42 35.96Z" fill="#FFE000"/>
<path d="M26.52 37.64C26.52 37.58 26.52 37.52 26.52 37.52C26.34 37.4 26.1 37.22 25.92 37.04C25.5 37.22 25.02 37.34 24.48 37.4C24.66 37.76 24.84 38.06 25.08 38.36C25.56 38.12 26.04 37.88 26.52 37.64Z" fill="#FFE000"/>
<path d="M24.24 37.4C24.18 37.4 24.12 37.4 24.12 37.4H23.82C23.76 37.4 23.7 37.4 23.7 37.4C23.58 37.7 23.34 38 23.22 38.3L23.88 38.6C23.94 38.48 24 38.3 24 38.18C24.06 38.42 24.12 38.6 24.18 38.84C24.42 38.72 24.66 38.6 24.9 38.48C24.66 38.12 24.42 37.76 24.24 37.4Z" fill="#FFE000"/>
<path d="M21.42 37.58L21.84 37.76L21.96 37.7L22.92 38.18C23.1 37.94 23.28 37.64 23.4 37.4C22.92 37.34 22.44 37.22 21.96 37.04C21.84 37.16 21.6 37.46 21.42 37.58Z" fill="#FFE000"/>
<path d="M21.78 36.92C21.3 36.68 20.88 36.38 20.52 35.96C20.4 36.14 20.34 36.32 20.22 36.44C20.22 36.56 20.1 36.8 20.1 36.86L21.24 37.4C21.36 37.34 21.6 37.04 21.78 36.92Z" fill="#FFE000"/>
<path d="M19.8 35.06H19.2C19.08 35.18 19.02 35.36 18.9 35.48C18.9 35.78 18.96 36.2 19.02 36.38L19.8 36.74C19.98 36.5 20.28 36.02 20.4 35.78C20.16 35.54 19.98 35.3 19.8 35.06Z" fill="#FFE000"/>
<path d="M18.96 34.82V33.92C18.66 33.68 18.42 33.44 18.18 33.2C18.06 33.38 17.94 33.62 17.82 33.8C17.76 34.64 17.82 35.48 18.06 35.96L18.18 36.02C18.42 35.72 18.72 35.24 18.9 34.94V34.82H18.96Z" fill="#FFE000"/>
<path d="M16.86 31.34C16.56 31.94 16.26 32.54 15.84 33.14C15.78 33.74 15.72 34.28 15.78 34.7L16.56 35.06C17.16 34.4 17.64 33.74 18 33.02C17.52 32.48 17.16 31.94 16.86 31.34Z" fill="#FFE000"/>
<path d="M16.3199 30.02C15.4799 30.98 14.5799 31.88 13.5599 32.48C13.4399 32.9 13.3199 33.38 13.3199 33.74L14.5199 34.28C15.5399 33.44 16.2599 32.18 16.7399 31.04C16.5599 30.74 16.4399 30.38 16.3199 30.02Z" fill="#FFE000"/>
<path d="M16.26 29.72C16.26 29.66 16.2 29.54 16.2 29.48C15.66 29.78 15.12 30.02 14.52 30.02C14.4 30.02 14.34 30.02 14.22 30.02H14.16C13.32 30.56 12.42 31.04 11.46 31.4C11.16 31.76 10.74 32.18 10.5 32.48L11.7 33.08C13.62 32.42 15.06 31.16 16.26 29.72Z" fill="#FFE000"/>
<path d="M37.08 25.88C35.52 23.48 33.54 25.16 31.14 23.66C30.96 23.78 30.72 23.78 30.42 23.84C31.08 24.74 31.5 25.76 31.68 26.78C32.46 27.98 34.08 28.16 35.64 27.86C35.1 26.96 34.38 26.66 33.54 26.48C32.58 26.18 31.8 25.82 31.56 24.8C32.4 26.54 34.92 26.3 37.08 25.88Z" fill="#FFE000"/>
<path d="M33.66 29.7199C33.66 29.1199 33.18 28.28 32.82 28.04C32.34 27.86 32.04 27.6199 31.8 27.2599C31.86 27.5599 31.86 27.8599 31.86 28.0999C31.86 28.4599 31.8 28.88 31.74 29.24C32.4 29.5999 33.06 29.7799 33.66 29.7199Z" fill="#FFE000"/>
<path d="M15.06 28.04C14.7 28.34 14.28 29.12 14.22 29.72C14.88 29.78 15.48 29.6 16.14 29.18C16.08 28.82 16.08 28.46 16.08 28.1C16.08 27.8 16.08 27.44 16.14 27.14C15.9 27.56 15.6 27.8 15.06 28.04Z" fill="#FFE000"/>
<path d="M14.28 26.48C13.44 26.66 12.72 27.02 12.18 27.86C13.8 28.16 15.48 27.98 16.26 26.66C16.44 25.64 16.92 24.68 17.52 23.84C17.22 23.84 16.98 23.78 16.8 23.66C14.46 25.16 12.42 23.48 10.86 25.88C13.02 26.36 15.54 26.6 16.32 24.8C16.02 25.82 15.24 26.18 14.28 26.48Z" fill="#FFE000"/>
<path d="M29.04 22.28C29.52 22.64 29.94 23.12 30.3 23.54C30.66 23.54 30.96 23.48 31.26 23.3C29.64 23 29.94 20.66 27.48 20.18L27.42 20.24C27.66 20.48 27.9 20.78 28.08 21.14H28.8H29.04V21.38V22.28Z" fill="#FFE000"/>
<path d="M17.7 23.5999C18.06 23.1199 18.48 22.6999 18.96 22.3399V21.4399V21.1999H19.2H19.8C19.98 20.8399 20.22 20.5399 20.46 20.2999L20.4 20.2399C17.94 20.7799 18.24 23.0599 16.62 23.3599C16.98 23.5399 17.28 23.5999 17.7 23.5999Z" fill="#FFE000"/>
<path d="M20.52 19.7C20.58 19.82 20.64 19.94 20.7 20.06C20.94 19.82 21.18 19.64 21.48 19.46C21.42 19.34 21.42 19.16 21.42 18.98C21.12 19.34 20.82 19.58 20.52 19.7Z" fill="#FFE000"/>
<path d="M26.58 19.04C26.58 19.22 26.52 19.4 26.52 19.52C26.82 19.7 27.06 19.88 27.3 20.12C27.36 20 27.42 19.88 27.48 19.76C27.12 19.58 26.82 19.34 26.58 19.04Z" fill="#FFE000"/>
<path d="M23.16 18.86C23.22 18.86 23.34 18.86 23.4 18.86C23.4 18.8 23.34 18.68 23.34 18.62C23.28 18.68 23.22 18.8 23.16 18.86Z" fill="#FFE000"/>
<path d="M24.78 18.86C24.72 18.8 24.66 18.68 24.6 18.56C24.6 18.68 24.54 18.74 24.54 18.8C24.6 18.86 24.72 18.86 24.78 18.86Z" fill="#FFE000"/>
<path d="M27.66 18.74C27.18 18.62 26.64 18.14 26.34 17.66C26.22 17.9 26.04 18.14 25.86 18.32L25.68 18.5L25.5 18.32C25.14 17.9 24.96 17.36 24.84 16.82C24.6 17.3 23.22 17.3 23.04 16.82C22.98 17.3 22.8 17.84 22.38 18.32L22.2 18.5L22.02 18.32C21.84 18.2 21.72 17.96 21.54 17.66C21.18 18.14 20.64 18.68 20.22 18.74L20.04 18.8C19.92 19.1 19.74 19.4 19.5 19.7C20.16 19.82 21.12 19.22 21.6 18.32C21.6 18.8 21.6 19.1 21.66 19.4C22.02 19.22 22.38 19.04 22.8 18.98C23.04 18.68 23.28 18.26 23.34 17.72C23.46 18.32 23.52 18.62 23.64 18.86C23.7 18.86 24.18 18.86 24.24 18.86C24.36 18.62 24.42 18.26 24.54 17.72C24.6 18.26 24.84 18.68 25.08 18.98C25.5 19.1 25.86 19.22 26.22 19.4C26.28 19.16 26.28 18.86 26.28 18.32C26.82 19.22 27.72 19.82 28.38 19.7C28.14 19.4 27.96 19.1 27.84 18.8L27.66 18.74Z" fill="#FFE000"/>
<path d="M27.9599 34.82H28.7999V33.8C30.5399 32.48 31.6799 30.44 31.6799 28.1C31.6799 25.82 30.5399 23.72 28.7999 22.4V21.38H27.9599C27.2399 20 25.7999 19.04 24.1199 19.04H23.8199C22.1399 19.04 20.6999 20 19.9799 21.38H19.1999V22.4C17.4599 23.72 16.3199 25.76 16.3199 28.1C16.3199 30.38 17.4599 32.48 19.1999 33.8V34.82H19.9799C20.6999 36.2 22.1399 37.16 23.8199 37.16H24.1199C25.7999 37.16 27.2399 36.2 27.9599 34.82ZM24.1199 36.8H23.8199C22.3199 36.8 20.9999 35.96 20.2799 34.64L20.1599 34.46H19.4999V33.68L19.3799 33.56C17.6399 32.24 16.6799 30.26 16.6799 28.16C16.6799 26.06 17.6999 24.08 19.3799 22.76L19.4999 22.64V21.8H20.1599L20.2799 21.62C20.9999 20.3 22.3199 19.46 23.8199 19.46H24.1199C25.6199 19.46 26.9399 20.3 27.6599 21.62L27.7799 21.8H28.4399V22.58L28.5599 22.7C30.2999 24.02 31.2599 26 31.2599 28.1C31.2599 30.2 30.2399 32.18 28.5599 33.5L28.4399 33.62V34.4H27.7799L27.6599 34.58C26.9399 35.96 25.6199 36.8 24.1199 36.8Z" fill="#FFE000"/>
<path d="M27.78 12.8C27.18 13.52 26.82 14.18 26.94 14.9C27.24 14.42 27.66 14 28.32 13.64C28.32 13.64 28.62 13.22 28.86 13.16C27.9 14.36 28.08 15.38 28.26 15.74C28.62 14.72 29.46 14.18 29.82 14C30.6 13.64 30.18 12.26 31.32 11.6C30.66 11.48 30.06 11.48 29.52 11.9C29.04 12.26 28.2 12.68 27.18 12.14C26.76 12.8 25.86 13.7 25.08 13.82C25.74 13.94 26.82 13.88 27.78 12.8ZM30.72 11.66C30.24 12.32 29.88 12.02 29.64 11.9C30.18 11.66 30.48 11.72 30.72 11.66Z" fill="#FFE000"/>
<path d="M34.62 47.24L34.26 47.6L34.62 46.46C34.62 46.46 33.42 46.58 33.9 47.6L33.96 47.78C34.08 48.08 34.38 48.38 34.62 48.5L34.8 48.62C35.04 48.74 35.16 48.62 35.04 48.32L34.62 47.24Z" fill="#FFE000"/>
<path d="M40.08 45.8L39.9 45.74C39.66 45.62 39.42 45.74 39.3 45.98L38.64 47.36L39.18 47.48L38.52 47.6L38.28 48.2C38.28 48.2 38.94 48.32 39.42 47.54C39.54 47.36 39.78 47.48 39.84 47.36L40.26 46.4C40.38 46.16 40.32 45.92 40.08 45.8Z" fill="#FFE000"/>
<path d="M37.02 45.0199C37.14 44.7799 37.02 44.5399 36.78 44.4199L36.6 44.2999C36.36 44.1799 36.12 44.2999 36 44.5399L35.64 45.2599C35.52 45.4999 35.76 45.6199 35.64 45.8599C35.46 46.4599 35.94 47.18 35.94 47.18L36.18 46.58L36.24 46.4599L35.88 45.6199L36.42 46.1599L37.02 45.0199Z" fill="#FFE000"/>
<path d="M38.64 45.62C38.7 45.44 38.64 45.2 38.46 45.14L38.16 45.02C37.98 44.96 37.74 45.02 37.68 45.2L37.02 46.7C36.78 47.24 37.02 48.02 37.02 48.02C37.38 47.78 37.68 47.54 37.86 47.06L37.38 47L38.22 46.7L38.64 45.62Z" fill="#FFE000"/>
</svg>
